<?xml version="1.0" encoding="utf-8" standalone="no"?>
<!DOCTYPE svg PUBLIC "-//W3C//DTD SVG 1.1//EN"
  "http://www.w3.org/Graphics/SVG/1.1/DTD/svg11.dtd">
<!-- Created with matplotlib (https://matplotlib.org/) -->
<svg height="501.70019pt" version="1.1" viewBox="0 0 750.949265 501.70019" width="750.949265pt" xmlns="http://www.w3.org/2000/svg" xmlns:xlink="http://www.w3.org/1999/xlink">
 <defs>
  <style type="text/css">
*{stroke-linecap:butt;stroke-linejoin:round;}
  </style>
 </defs>
 <g id="figure_1">
  <g id="patch_1">
   <path d="M 0 501.70019 
L 750.949265 501.70019 
L 750.949265 0 
L 0 0 
z
" style="fill:none;"/>
  </g>
  <g id="axes_1">
   <g id="patch_2">
    <path d="M 54.255319 462.360921 
L 706.557319 462.360921 
L 706.557319 12.803721 
L 54.255319 12.803721 
z
" style="fill:none;"/>
   </g>
   <g id="matplotlib.axis_1">
    <g id="xtick_1">
     <g id="line2d_1">
      <path clip-path="url(#p2d88a316f1)" d="M 89.514886 462.360921 
L 89.514886 12.803721 
" style="fill:none;stroke:#b0b0b0;stroke-linecap:square;stroke-width:0.8;"/>
     </g>
     <g id="line2d_2">
      <defs>
       <path d="M 0 0 
L 0 3.5 
" id="m48bf62d4a6" style="stroke:#000000;stroke-width:0.8;"/>
      </defs>
      <g>
       <use style="stroke:#000000;stroke-width:0.8;" x="89.514886" xlink:href="#m48bf62d4a6" y="462.360921"/>
      </g>
     </g>
     <g id="text_1">
      <!-- $10$ -->
      <defs>
       <path d="M 26.59375 63.796875 
C 26.59375 65.890625 26.5 66 25.09375 66 
C 21.203125 61.359375 15.296875 59.890625 9.703125 59.6875 
C 9.40625 59.6875 8.90625 59.6875 8.796875 59.5 
C 8.703125 59.296875 8.703125 59.09375 8.703125 57 
C 11.796875 57 17 57.59375 21 59.984375 
L 21 7.296875 
C 21 3.796875 20.796875 2.59375 12.203125 2.59375 
L 9.203125 2.59375 
L 9.203125 0 
C 14 0.09375 19 0.1875 23.796875 0.1875 
C 28.59375 0.1875 33.59375 0.09375 38.40625 0 
L 38.40625 2.59375 
L 35.40625 2.59375 
C 26.796875 2.59375 26.59375 3.6875 26.59375 7.296875 
z
" id="CMR17-49"/>
       <path d="M 42 31.84375 
C 42 37.96875 41.90625 48.421875 37.703125 56.453125 
C 34 63.484375 28.09375 66 22.90625 66 
C 18.09375 66 12 63.78125 8.203125 56.5625 
C 4.203125 49.015625 3.796875 39.671875 3.796875 31.84375 
C 3.796875 26.109375 3.90625 17.375 7 9.734375 
C 11.296875 -0.609375 19 -2 22.90625 -2 
C 27.5 -2 34.5 -0.109375 38.59375 9.4375 
C 41.59375 16.375 42 24.5 42 31.84375 
z
M 22.90625 -0.40625 
C 16.5 -0.40625 12.703125 5.125 11.296875 12.75 
C 10.203125 18.6875 10.203125 27.328125 10.203125 32.953125 
C 10.203125 40.6875 10.203125 47.109375 11.5 53.234375 
C 13.40625 61.78125 19 64.390625 22.90625 64.390625 
C 27 64.390625 32.296875 61.671875 34.203125 53.4375 
C 35.5 47.71875 35.59375 40.984375 35.59375 32.953125 
C 35.59375 26.421875 35.59375 18.375 34.40625 12.453125 
C 32.296875 1.5 26.40625 -0.40625 22.90625 -0.40625 
z
" id="CMR17-48"/>
      </defs>
      <g transform="translate(82.686398 479.046797)scale(0.14 -0.14)">
       <use transform="scale(0.996264)" xlink:href="#CMR17-49"/>
       <use transform="translate(45.690477 0)scale(0.996264)" xlink:href="#CMR17-48"/>
      </g>
     </g>
    </g>
    <g id="xtick_2">
     <g id="line2d_3">
      <path clip-path="url(#p2d88a316f1)" d="M 177.663805 462.360921 
L 177.663805 12.803721 
" style="fill:none;stroke:#b0b0b0;stroke-linecap:square;stroke-width:0.8;"/>
     </g>
     <g id="line2d_4">
      <g>
       <use style="stroke:#000000;stroke-width:0.8;" x="177.663805" xlink:href="#m48bf62d4a6" y="462.360921"/>
      </g>
     </g>
     <g id="text_2">
      <!-- $15$ -->
      <defs>
       <path d="M 11.40625 58.59375 
C 12.40625 58.1875 16.5 56.890625 20.703125 56.890625 
C 30 56.890625 35.09375 61.890625 38 64.6875 
C 38 65.484375 38 66 37.40625 66 
C 37.296875 66 37.09375 66 36.296875 65.59375 
C 32.796875 64.09375 28.703125 63 23.703125 63 
C 20.703125 63 16.203125 63.359375 11.296875 65.484375 
C 10.203125 66 10 66 9.90625 66 
C 9.40625 66 9.296875 65.890625 9.296875 63.90625 
L 9.296875 34.859375 
C 9.296875 33.015625 9.296875 32.5 10.296875 32.5 
C 10.796875 32.5 11 32.703125 11.5 33.421875 
C 14.703125 38.046875 19.09375 40 24.09375 40 
C 27.59375 40 35.09375 37.734375 35.09375 20.203125 
C 35.09375 16.984375 35.09375 11.1875 32.09375 6.59375 
C 29.59375 2.484375 25.703125 0.390625 21.40625 0.390625 
C 14.796875 0.390625 8.09375 4.984375 6.296875 12.6875 
C 6.703125 12.59375 7.5 12.390625 7.90625 12.390625 
C 9.203125 12.390625 11.703125 13.09375 11.703125 16.1875 
C 11.703125 18.890625 9.796875 20 7.90625 20 
C 5.59375 20 4.09375 18.59375 4.09375 15.796875 
C 4.09375 7.09375 11 -2 21.59375 -2 
C 31.90625 -2 41.703125 6.890625 41.703125 19.796875 
C 41.703125 32.09375 33.90625 41.59375 24.203125 41.59375 
C 19.09375 41.59375 14.796875 39.6875 11.40625 36 
z
" id="CMR17-53"/>
      </defs>
      <g transform="translate(170.835317 479.046797)scale(0.14 -0.14)">
       <use transform="scale(0.996264)" xlink:href="#CMR17-49"/>
       <use transform="translate(45.690477 0)scale(0.996264)" xlink:href="#CMR17-53"/>
      </g>
     </g>
    </g>
    <g id="xtick_3">
     <g id="line2d_5">
      <path clip-path="url(#p2d88a316f1)" d="M 265.812724 462.360921 
L 265.812724 12.803721 
" style="fill:none;stroke:#b0b0b0;stroke-linecap:square;stroke-width:0.8;"/>
     </g>
     <g id="line2d_6">
      <g>
       <use style="stroke:#000000;stroke-width:0.8;" x="265.812724" xlink:href="#m48bf62d4a6" y="462.360921"/>
      </g>
     </g>
     <g id="text_3">
      <!-- $20$ -->
      <defs>
       <path d="M 41.703125 15.46875 
L 39.90625 15.46875 
C 38.90625 8.390625 38.09375 7.1875 37.703125 6.59375 
C 37.203125 5.796875 30 5.796875 28.59375 5.796875 
L 9.40625 5.796875 
C 13 9.6875 20 16.765625 28.5 24.9375 
C 34.59375 30.71875 41.703125 37.5 41.703125 47.390625 
C 41.703125 59.1875 32.296875 66 21.796875 66 
C 10.796875 66 4.09375 56.296875 4.09375 47.296875 
C 4.09375 43.390625 7 42.890625 8.203125 42.890625 
C 9.203125 42.890625 12.203125 43.484375 12.203125 46.984375 
C 12.203125 50.09375 9.59375 51 8.203125 51 
C 7.59375 51 7 50.890625 6.59375 50.6875 
C 8.5 59.1875 14.296875 63.390625 20.40625 63.390625 
C 29.09375 63.390625 34.796875 56.5 34.796875 47.390625 
C 34.796875 38.703125 29.703125 31.21875 24 24.734375 
L 4.09375 2.296875 
L 4.09375 0 
L 39.296875 0 
z
" id="CMR17-50"/>
      </defs>
      <g transform="translate(258.984236 479.046797)scale(0.14 -0.14)">
       <use transform="scale(0.996264)" xlink:href="#CMR17-50"/>
       <use transform="translate(45.690477 0)scale(0.996264)" xlink:href="#CMR17-48"/>
      </g>
     </g>
    </g>
    <g id="xtick_4">
     <g id="line2d_7">
      <path clip-path="url(#p2d88a316f1)" d="M 353.961643 462.360921 
L 353.961643 12.803721 
" style="fill:none;stroke:#b0b0b0;stroke-linecap:square;stroke-width:0.8;"/>
     </g>
     <g id="line2d_8">
      <g>
       <use style="stroke:#000000;stroke-width:0.8;" x="353.961643" xlink:href="#m48bf62d4a6" y="462.360921"/>
      </g>
     </g>
     <g id="text_4">
      <!-- $25$ -->
      <g transform="translate(347.133154 479.046797)scale(0.14 -0.14)">
       <use transform="scale(0.996264)" xlink:href="#CMR17-50"/>
       <use transform="translate(45.690477 0)scale(0.996264)" xlink:href="#CMR17-53"/>
      </g>
     </g>
    </g>
    <g id="xtick_5">
     <g id="line2d_9">
      <path clip-path="url(#p2d88a316f1)" d="M 442.110562 462.360921 
L 442.110562 12.803721 
" style="fill:none;stroke:#b0b0b0;stroke-linecap:square;stroke-width:0.8;"/>
     </g>
     <g id="line2d_10">
      <g>
       <use style="stroke:#000000;stroke-width:0.8;" x="442.110562" xlink:href="#m48bf62d4a6" y="462.360921"/>
      </g>
     </g>
     <g id="text_5">
      <!-- $30$ -->
      <defs>
       <path d="M 22.09375 34 
C 31 34 34.90625 26.140625 34.90625 17.09375 
C 34.90625 5.03125 28.5 0.390625 22.703125 0.390625 
C 17.40625 0.390625 8.796875 3.015625 6.09375 10.796875 
C 6.59375 10.59375 7.09375 10.59375 7.59375 10.59375 
C 10 10.59375 11.796875 12.1875 11.796875 14.796875 
C 11.796875 17.6875 9.59375 19 7.59375 19 
C 5.90625 19 3.296875 18.1875 3.296875 14.484375 
C 3.296875 5.234375 12.296875 -2 22.90625 -2 
C 34 -2 42.5 6.75 42.5 16.984375 
C 42.5 26.84375 34.5 34 25 35.09375 
C 32.59375 36.671875 39.90625 43.375 39.90625 52.390625 
C 39.90625 60.25 32 66 23 66 
C 13.90625 66 5.90625 60.34375 5.90625 52.296875 
C 5.90625 48.796875 8.5 48.1875 9.796875 48.1875 
C 11.90625 48.1875 13.703125 49.484375 13.703125 52.09375 
C 13.703125 54.6875 11.90625 56 9.796875 56 
C 9.40625 56 8.90625 56 8.5 55.796875 
C 11.40625 62.484375 19.296875 63.6875 22.796875 63.6875 
C 26.296875 63.6875 32.90625 61.96875 32.90625 52.296875 
C 32.90625 49.484375 32.5 44.546875 29.09375 40.21875 
C 26.09375 36.390625 22.703125 36.1875 19.40625 35.890625 
C 18.90625 35.890625 16.59375 35.6875 16.203125 35.6875 
C 15.5 35.59375 15.09375 35.5 15.09375 34.796875 
C 15.09375 34.09375 15.203125 34 17.203125 34 
z
" id="CMR17-51"/>
      </defs>
      <g transform="translate(435.282073 479.046797)scale(0.14 -0.14)">
       <use transform="scale(0.996264)" xlink:href="#CMR17-51"/>
       <use transform="translate(45.690477 0)scale(0.996264)" xlink:href="#CMR17-48"/>
      </g>
     </g>
    </g>
    <g id="xtick_6">
     <g id="line2d_11">
      <path clip-path="url(#p2d88a316f1)" d="M 530.259481 462.360921 
L 530.259481 12.803721 
" style="fill:none;stroke:#b0b0b0;stroke-linecap:square;stroke-width:0.8;"/>
     </g>
     <g id="line2d_12">
      <g>
       <use style="stroke:#000000;stroke-width:0.8;" x="530.259481" xlink:href="#m48bf62d4a6" y="462.360921"/>
      </g>
     </g>
     <g id="text_6">
      <!-- $35$ -->
      <g transform="translate(523.430992 479.046797)scale(0.14 -0.14)">
       <use transform="scale(0.996264)" xlink:href="#CMR17-51"/>
       <use transform="translate(45.690477 0)scale(0.996264)" xlink:href="#CMR17-53"/>
      </g>
     </g>
    </g>
    <g id="xtick_7">
     <g id="line2d_13">
      <path clip-path="url(#p2d88a316f1)" d="M 618.4084 462.360921 
L 618.4084 12.803721 
" style="fill:none;stroke:#b0b0b0;stroke-linecap:square;stroke-width:0.8;"/>
     </g>
     <g id="line2d_14">
      <g>
       <use style="stroke:#000000;stroke-width:0.8;" x="618.4084" xlink:href="#m48bf62d4a6" y="462.360921"/>
      </g>
     </g>
     <g id="text_7">
      <!-- $40$ -->
      <defs>
       <path d="M 33.59375 64.796875 
C 33.59375 66.890625 33.5 67 31.703125 67 
L 2 19.59375 
L 2 17 
L 27.796875 17 
L 27.796875 7.1875 
C 27.796875 3.59375 27.59375 2.59375 20.59375 2.59375 
L 18.703125 2.59375 
L 18.703125 0 
C 21.90625 0.1875 27.296875 0.1875 30.703125 0.1875 
C 34.09375 0.1875 39.5 0.1875 42.703125 0 
L 42.703125 2.59375 
L 40.796875 2.59375 
C 33.796875 2.59375 33.59375 3.59375 33.59375 7.1875 
L 33.59375 17 
L 43.796875 17 
L 43.796875 19.59375 
L 33.59375 19.59375 
z
M 28.09375 58.171875 
L 28.09375 19.59375 
L 4 19.59375 
z
" id="CMR17-52"/>
      </defs>
      <g transform="translate(611.579911 479.046797)scale(0.14 -0.14)">
       <use transform="scale(0.996264)" xlink:href="#CMR17-52"/>
       <use transform="translate(45.690477 0)scale(0.996264)" xlink:href="#CMR17-48"/>
      </g>
     </g>
    </g>
    <g id="xtick_8">
     <g id="line2d_15">
      <path clip-path="url(#p2d88a316f1)" d="M 706.557319 462.360921 
L 706.557319 12.803721 
" style="fill:none;stroke:#b0b0b0;stroke-linecap:square;stroke-width:0.8;"/>
     </g>
     <g id="line2d_16">
      <g>
       <use style="stroke:#000000;stroke-width:0.8;" x="706.557319" xlink:href="#m48bf62d4a6" y="462.360921"/>
      </g>
     </g>
     <g id="text_8">
      <!-- $45$ -->
      <g transform="translate(699.72883 479.046797)scale(0.14 -0.14)">
       <use transform="scale(0.996264)" xlink:href="#CMR17-52"/>
       <use transform="translate(45.690477 0)scale(0.996264)" xlink:href="#CMR17-53"/>
      </g>
     </g>
    </g>
    <g id="text_9">
     <!-- $Shear\ angle\ \phi$ -->
     <defs>
      <path d="M 63.5 69.09375 
C 63.5 70 62.796875 70 62.59375 70 
C 62.203125 70 62.09375 69.890625 60.90625 68.390625 
C 60.296875 67.6875 56.203125 62.53125 56.09375 62.4375 
C 52.796875 68.890625 46.203125 70 42 70 
C 29.296875 70 17.796875 58.46875 17.796875 47.25 
C 17.796875 39.796875 22.296875 35.4375 27.203125 33.75 
C 28.296875 33.34375 34.203125 31.765625 37.203125 31.0625 
C 42.296875 29.671875 43.59375 29.28125 45.703125 27.09375 
C 46.09375 26.59375 48.09375 24.3125 48.09375 19.65625 
C 48.09375 10.421875 39.5 0.890625 29.5 0.890625 
C 21.296875 0.890625 12.203125 4.359375 12.203125 15.484375 
C 12.203125 17.375 12.59375 19.75 12.90625 20.75 
C 12.90625 21.046875 13 21.53125 13 21.734375 
C 13 22.140625 12.796875 22.625 12 22.625 
C 11.09375 22.625 11 22.4375 10.59375 20.75 
L 5.5 0.390625 
C 5.5 0.296875 5.09375 -1 5.09375 -1.109375 
C 5.09375 -2 5.90625 -2 6.09375 -2 
C 6.5 -2 6.59375 -1.90625 7.796875 -0.40625 
L 12.40625 5.5625 
C 14.796875 1.984375 20 -2 29.296875 -2 
C 42.203125 -2 54 10.421875 54 22.828125 
C 54 27 53 30.671875 49.203125 34.34375 
C 47.09375 36.421875 45.296875 36.921875 36.09375 39.3125 
C 29.40625 41.09375 28.5 41.390625 26.703125 42.984375 
C 25 44.671875 23.703125 47.046875 23.703125 50.421875 
C 23.703125 58.765625 32.203125 67.296875 41.703125 67.296875 
C 51.5 67.296875 56.09375 61.34375 56.09375 51.90625 
C 56.09375 49.328125 55.59375 46.65625 55.59375 46.25 
C 55.59375 45.359375 56.40625 45.359375 56.703125 45.359375 
C 57.59375 45.359375 57.703125 45.65625 58.09375 47.25 
z
" id="CMMI12-83"/>
      <path d="M 28.09375 66.484375 
C 28.203125 66.890625 28.40625 67.484375 28.40625 67.984375 
C 28.40625 69 27.40625 69 27.203125 69 
C 27.09375 69 22.203125 68.59375 21.703125 68.484375 
C 20 68.390625 18.5 68.1875 16.703125 68.09375 
C 14.203125 67.890625 13.5 67.796875 13.5 65.984375 
C 13.5 64.984375 14.296875 64.984375 15.703125 64.984375 
C 20.59375 64.984375 20.703125 64.109375 20.703125 63.125 
C 20.703125 62.53125 20.5 61.734375 20.40625 61.4375 
L 5.90625 3.890625 
C 5.5 2.390625 5.5 2.1875 5.5 1.59375 
C 5.5 -0.609375 7.203125 -1 8.203125 -1 
C 9.90625 -1 11.203125 0.296875 11.703125 1.390625 
L 16.203125 19.453125 
C 16.703125 21.640625 17.296875 23.734375 17.796875 25.9375 
C 18.90625 30.125 18.90625 30.21875 20.796875 33.109375 
C 22.703125 36.015625 27.203125 41.984375 34.90625 41.984375 
C 38.90625 41.984375 40.296875 39 40.296875 35.015625 
C 40.296875 29.421875 36.40625 18.546875 34.203125 12.5625 
C 33.296875 10.171875 32.796875 8.875 32.796875 7.078125 
C 32.796875 2.59375 35.90625 -1 40.703125 -1 
C 50 -1 53.5 13.65625 53.5 14.265625 
C 53.5 14.765625 53.09375 15.15625 52.5 15.15625 
C 51.59375 15.15625 51.5 14.859375 51 13.15625 
C 48.703125 5.1875 45 1 41 1 
C 40 1 38.40625 1.09375 38.40625 4.28125 
C 38.40625 6.875 39.59375 10.078125 40 11.171875 
C 41.796875 15.953125 46.296875 27.734375 46.296875 33.515625 
C 46.296875 39.5 42.796875 44 35.203125 44 
C 29.5 44 24.5 41.296875 20.40625 36.109375 
z
" id="CMMI12-104"/>
      <path d="M 17.90625 23 
C 20.59375 23 27.40625 23.1875 32.203125 25 
C 39.796875 27.90625 40.5 33.75 40.5 35.546875 
C 40.5 39.984375 36.703125 44 30.09375 44 
C 19.59375 44 4.5 34.453125 4.5 16.65625 
C 4.5 6.25 10.5 -1 19.59375 -1 
C 33.203125 -1 41.796875 9.515625 41.796875 10.796875 
C 41.796875 11.390625 41.203125 11.890625 40.796875 11.890625 
C 40.5 11.890625 40.40625 11.796875 39.5 10.90625 
C 33.09375 2.484375 23.59375 1 19.796875 1 
C 14.09375 1 11.09375 5.453125 11.09375 12.78125 
C 11.09375 14.171875 11.09375 16.65625 12.59375 23 
z
M 13.09375 25 
C 17.40625 40.484375 26.90625 41.984375 30.09375 41.984375 
C 34.5 41.984375 37.5 39.375 37.5 35.546875 
C 37.5 25 21.5 25 17.296875 25 
z
" id="CMMI12-101"/>
      <path d="M 30.09375 11.859375 
C 29.59375 10.171875 29.59375 9.96875 28.203125 8.078125 
C 26 5.28125 21.59375 1 16.90625 1 
C 12.796875 1 10.5 4.6875 10.5 10.5625 
C 10.5 16.0625 13.59375 27.234375 15.5 31.421875 
C 18.90625 38.40625 23.59375 41.984375 27.5 41.984375 
C 34.09375 41.984375 35.40625 33.8125 35.40625 33.015625 
C 35.40625 32.921875 35.09375 31.625 35 31.421875 
z
M 36.5 37.40625 
C 35.40625 40 32.703125 44 27.5 44 
C 16.203125 44 4 29.421875 4 14.65625 
C 4 4.78125 9.796875 -1 16.59375 -1 
C 22.09375 -1 26.796875 3.28125 29.59375 6.578125 
C 30.59375 0.6875 35.296875 -1 38.296875 -1 
C 41.296875 -1 43.703125 0.796875 45.5 4.375 
C 47.09375 7.75 48.5 13.828125 48.5 14.21875 
C 48.5 14.71875 48.09375 15.125 47.5 15.125 
C 46.59375 15.125 46.5 14.625 46.09375 13.125 
C 44.59375 7.265625 42.703125 1 38.59375 1 
C 35.703125 1 35.5 3.578125 35.5 5.5625 
C 35.5 7.859375 35.796875 8.953125 36.703125 12.828125 
C 37.40625 15.3125 37.90625 17.5 38.703125 20.390625 
C 42.40625 35.3125 43.296875 38.890625 43.296875 39.5 
C 43.296875 40.890625 42.203125 42 40.703125 42 
C 37.5 42 36.703125 38.5 36.5 37.3125 
z
" id="CMMI12-97"/>
      <path d="M 38.90625 41.140625 
C 35.796875 40.59375 34.203125 38.390625 34.203125 36.1875 
C 34.203125 33.796875 36.09375 32.984375 37.5 32.984375 
C 40.296875 32.984375 42.59375 35.390625 42.59375 38.390625 
C 42.59375 41.421875 39.5 44 34.5 44 
C 30.5 44 25.90625 42.1875 21.703125 36.484375 
C 21 41.5625 17 44 13 44 
C 9.09375 44 7.09375 41.28125 5.90625 39.1875 
C 4.203125 35.59375 2.703125 29.5625 2.703125 29.0625 
C 2.703125 28.65625 3.09375 28.140625 3.796875 28.140625 
C 4.59375 28.140625 4.703125 28.25 5.296875 30.578125 
C 6.796875 36.59375 8.703125 41.984375 12.703125 41.984375 
C 15.09375 41.984375 15.796875 40.6875 15.796875 37.796875 
C 15.796875 35.59375 14.796875 31.6875 14.09375 28.546875 
L 11.296875 17.65625 
C 10.90625 15.734375 9.796875 11.1875 9.296875 9.375 
C 8.59375 6.75 7.5 2 7.5 1.5 
C 7.5 0.09375 8.59375 -1 10.09375 -1 
C 11.203125 -1 13.09375 -0.3125 13.703125 1.703125 
C 14 2.5 17.703125 17.75 18.296875 20.078125 
C 18.796875 22.296875 19.40625 24.40625 19.90625 26.640625 
C 20.296875 28.046875 20.703125 29.65625 21 30.96875 
C 21.296875 31.875 24 36.796875 26.5 38.984375 
C 27.703125 40.09375 30.296875 41.984375 34.40625 41.984375 
C 36 41.984375 37.59375 41.78125 38.90625 41.140625 
z
" id="CMMI12-114"/>
      <path d="M 20.59375 29.21875 
C 20.796875 29.828125 23.296875 34.8125 27 38 
C 29.59375 40.390625 33 41.984375 36.90625 41.984375 
C 40.90625 41.984375 42.296875 39 42.296875 35.015625 
C 42.296875 29.328125 38.203125 17.953125 36.203125 12.5625 
C 35.296875 10.171875 34.796875 8.875 34.796875 7.078125 
C 34.796875 2.59375 37.90625 -1 42.703125 -1 
C 52 -1 55.5 13.65625 55.5 14.265625 
C 55.5 14.765625 55.09375 15.15625 54.5 15.15625 
C 53.59375 15.15625 53.5 14.859375 53 13.15625 
C 50.703125 4.984375 46.90625 1 43 1 
C 42 1 40.40625 1.09375 40.40625 4.28125 
C 40.40625 6.78125 41.5 9.765625 42.09375 11.171875 
C 44.09375 16.65625 48.296875 27.828125 48.296875 33.515625 
C 48.296875 39.5 44.796875 44 37.203125 44 
C 28.296875 44 23.59375 37.703125 21.796875 35.203125 
C 21.5 40.890625 17.40625 44 13 44 
C 9.796875 44 7.59375 42.09375 5.90625 38.703125 
C 4.09375 35.109375 2.703125 29.125 2.703125 28.71875 
C 2.703125 28.328125 3.09375 27.828125 3.796875 27.828125 
C 4.59375 27.828125 4.703125 27.921875 5.296875 30.21875 
C 6.90625 36.3125 8.703125 41.984375 12.703125 41.984375 
C 15 41.984375 15.796875 40.390625 15.796875 37.40625 
C 15.796875 35.203125 14.796875 31.3125 14.09375 28.234375 
L 11.296875 17.453125 
C 10.90625 15.5625 9.796875 11.0625 9.296875 9.265625 
C 8.59375 6.671875 7.5 1.984375 7.5 1.484375 
C 7.5 0.09375 8.59375 -1 10.09375 -1 
C 11.296875 -1 12.703125 -0.40625 13.5 1.09375 
C 13.703125 1.59375 14.59375 5.078125 15.09375 7.078125 
L 17.296875 16.0625 
z
" id="CMMI12-110"/>
      <path d="M 33.796875 12.671875 
C 33.40625 11.0625 33.203125 10.671875 31.90625 9.171875 
C 27.796875 3.890625 23.59375 2 20.5 2 
C 17.203125 2 14.09375 4.578125 14.09375 11.46875 
C 14.09375 16.75 17.09375 27.921875 19.296875 32.421875 
C 22.203125 38 26.703125 41.984375 30.90625 41.984375 
C 37.5 41.984375 38.796875 33.8125 38.796875 33.21875 
L 38.5 31.8125 
z
M 40 37.40625 
C 38.703125 40.296875 35.90625 44 30.90625 44 
C 20 44 7.59375 30.328125 7.59375 15.453125 
C 7.59375 5.078125 13.90625 0 20.296875 0 
C 25.59375 0 30.296875 4.1875 32.09375 6.1875 
L 29.90625 -2.75 
C 28.5 -8.125 27.90625 -10.578125 24.296875 -14 
C 20.203125 -18 16.40625 -18 14.203125 -18 
C 11.203125 -18 8.703125 -17.8125 6.203125 -17.03125 
C 9.40625 -16.15625 10.203125 -13.40625 10.203125 -12.328125 
C 10.203125 -10.765625 9 -9.203125 6.796875 -9.203125 
C 4.40625 -9.203125 1.796875 -11.15625 1.796875 -14.390625 
C 1.796875 -18.40625 5.90625 -20 14.40625 -20 
C 27.296875 -20 34 -11.84375 35.296875 -6.5625 
L 46.40625 37.90625 
C 46.703125 39.09375 46.703125 39.296875 46.703125 39.5 
C 46.703125 40.890625 45.59375 42 44.09375 42 
C 41.703125 42 40.296875 40 40 37.3125 
z
" id="CMMI12-103"/>
      <path d="M 25.40625 66.484375 
C 25.5 66.890625 25.703125 67.484375 25.703125 67.984375 
C 25.703125 69 24.703125 69 24.5 69 
C 24.40625 69 20.796875 68.6875 19 68.484375 
C 17.296875 68.390625 15.796875 68.1875 14 68.09375 
C 11.59375 67.890625 10.90625 67.796875 10.90625 65.984375 
C 10.90625 64.984375 11.90625 64.984375 12.90625 64.984375 
C 18 64.984375 18 64.09375 18 63.109375 
C 18 62.703125 18 62.515625 17.5 60.71875 
L 5.09375 11.421875 
C 4.796875 10.328125 4.59375 9.53125 4.59375 7.953125 
C 4.59375 2.984375 8.296875 -1 13.40625 -1 
C 16.703125 -1 18.90625 1.1875 20.5 4.265625 
C 22.203125 7.546875 23.59375 13.8125 23.59375 14.203125 
C 23.59375 14.703125 23.203125 15.109375 22.59375 15.109375 
C 21.703125 15.109375 21.59375 14.609375 21.203125 13.109375 
C 19.40625 6.265625 17.59375 1 13.59375 1 
C 10.59375 1 10.59375 4.171875 10.59375 5.5625 
C 10.59375 5.96875 10.59375 8.046875 11.296875 10.828125 
z
" id="CMMI12-108"/>
      <path d="M 43 68.09375 
C 43 69 42.296875 69 42 69 
C 41.09375 69 41 68.796875 40.59375 67.09375 
L 35.203125 45.6875 
C 34.90625 44.390625 34.796875 44.296875 34.703125 44.1875 
C 34.59375 44 33.90625 43.890625 33.703125 43.890625 
C 17.296875 42.5 4.703125 29.109375 4.703125 16.734375 
C 4.703125 6.046875 13 -0.5 23.40625 -1.109375 
C 22.59375 -4.15625 21.90625 -7.296875 21.09375 -10.34375 
C 19.703125 -15.546875 18.90625 -18.8125 18.90625 -19.203125 
C 18.90625 -19.40625 18.90625 -20 19.90625 -20 
C 20.203125 -20 20.59375 -20 20.796875 -19.609375 
C 21 -19.40625 21.59375 -17.015625 22 -15.75 
L 25.703125 -1.109375 
C 42.796875 -0.203125 55.796875 13.671875 55.796875 26.140625 
C 55.796875 36.140625 48.203125 43.296875 37.09375 44 
z
M 36.5 42 
C 43.09375 41.59375 49.703125 37.9375 49.703125 28.21875 
C 49.703125 17.03125 41.796875 2.1875 26.203125 1 
z
M 23.90625 0.890625 
C 19 1.1875 10.796875 3.765625 10.796875 14.65625 
C 10.796875 27.140625 19.90625 41 34.296875 41.890625 
z
" id="CMMI12-30"/>
     </defs>
     <g transform="translate(324.478954 498.212126)scale(0.18 -0.18)">
      <use transform="scale(0.996264)" xlink:href="#CMMI12-83"/>
      <use transform="translate(65.794439 0)scale(0.996264)" xlink:href="#CMMI12-104"/>
      <use transform="translate(121.949063 0)scale(0.996264)" xlink:href="#CMMI12-101"/>
      <use transform="translate(167.161064 0)scale(0.996264)" xlink:href="#CMMI12-97"/>
      <use transform="translate(218.368922 0)scale(0.996264)" xlink:href="#CMMI12-114"/>
      <use transform="translate(296.268647 0)scale(0.996264)" xlink:href="#CMMI12-97"/>
      <use transform="translate(347.476504 0)scale(0.996264)" xlink:href="#CMMI12-110"/>
      <use transform="translate(405.706551 0)scale(0.996264)" xlink:href="#CMMI12-103"/>
      <use transform="translate(455.992041 0)scale(0.996264)" xlink:href="#CMMI12-108"/>
      <use transform="translate(487.240445 0)scale(0.996264)" xlink:href="#CMMI12-101"/>
      <use transform="translate(563.681559 0)scale(0.996264)" xlink:href="#CMMI12-30"/>
     </g>
    </g>
   </g>
   <g id="matplotlib.axis_2">
    <g id="ytick_1">
     <g id="line2d_17">
      <path clip-path="url(#p2d88a316f1)" d="M 54.255319 429.526631 
L 706.557319 429.526631 
" style="fill:none;stroke:#b0b0b0;stroke-linecap:square;stroke-width:0.8;"/>
     </g>
     <g id="line2d_18">
      <defs>
       <path d="M 0 0 
L -3.5 0 
" id="m2e799cb6b3" style="stroke:#000000;stroke-width:0.8;"/>
      </defs>
      <g>
       <use style="stroke:#000000;stroke-width:0.8;" x="54.255319" xlink:href="#m2e799cb6b3" y="429.526631"/>
      </g>
     </g>
     <g id="text_10">
      <!-- $0$ -->
      <g transform="translate(40.42683 434.36957)scale(0.14 -0.14)">
       <use transform="scale(0.996264)" xlink:href="#CMR17-48"/>
      </g>
     </g>
    </g>
    <g id="ytick_2">
     <g id="line2d_19">
      <path clip-path="url(#p2d88a316f1)" d="M 54.255319 354.321982 
L 706.557319 354.321982 
" style="fill:none;stroke:#b0b0b0;stroke-linecap:square;stroke-width:0.8;"/>
     </g>
     <g id="line2d_20">
      <g>
       <use style="stroke:#000000;stroke-width:0.8;" x="54.255319" xlink:href="#m2e799cb6b3" y="354.321982"/>
      </g>
     </g>
     <g id="text_11">
      <!-- $200$ -->
      <g transform="translate(26.769853 359.16492)scale(0.14 -0.14)">
       <use transform="scale(0.996264)" xlink:href="#CMR17-50"/>
       <use transform="translate(45.690477 0)scale(0.996264)" xlink:href="#CMR17-48"/>
       <use transform="translate(91.380954 0)scale(0.996264)" xlink:href="#CMR17-48"/>
      </g>
     </g>
    </g>
    <g id="ytick_3">
     <g id="line2d_21">
      <path clip-path="url(#p2d88a316f1)" d="M 54.255319 279.117332 
L 706.557319 279.117332 
" style="fill:none;stroke:#b0b0b0;stroke-linecap:square;stroke-width:0.8;"/>
     </g>
     <g id="line2d_22">
      <g>
       <use style="stroke:#000000;stroke-width:0.8;" x="54.255319" xlink:href="#m2e799cb6b3" y="279.117332"/>
      </g>
     </g>
     <g id="text_12">
      <!-- $400$ -->
      <g transform="translate(26.769853 283.96027)scale(0.14 -0.14)">
       <use transform="scale(0.996264)" xlink:href="#CMR17-52"/>
       <use transform="translate(45.690477 0)scale(0.996264)" xlink:href="#CMR17-48"/>
       <use transform="translate(91.380954 0)scale(0.996264)" xlink:href="#CMR17-48"/>
      </g>
     </g>
    </g>
    <g id="ytick_4">
     <g id="line2d_23">
      <path clip-path="url(#p2d88a316f1)" d="M 54.255319 203.912682 
L 706.557319 203.912682 
" style="fill:none;stroke:#b0b0b0;stroke-linecap:square;stroke-width:0.8;"/>
     </g>
     <g id="line2d_24">
      <g>
       <use style="stroke:#000000;stroke-width:0.8;" x="54.255319" xlink:href="#m2e799cb6b3" y="203.912682"/>
      </g>
     </g>
     <g id="text_13">
      <!-- $600$ -->
      <defs>
       <path d="M 10.59375 34.34375 
C 10.59375 58 21.796875 63.6875 28.296875 63.6875 
C 30.40625 63.6875 35.5 63.265625 37.5 59.09375 
C 35.90625 59.09375 32.90625 59.09375 32.90625 55.59375 
C 32.90625 52.890625 35.09375 52 36.5 52 
C 37.40625 52 40.09375 52.390625 40.09375 55.796875 
C 40.09375 62.296875 35.09375 66 28.203125 66 
C 16.296875 66 3.796875 53.296875 3.796875 31.421875 
C 3.796875 4.015625 15.09375 -2 23.09375 -2 
C 32.796875 -2 42 6.734375 42 20.234375 
C 42 32.828125 33.90625 42 23.703125 42 
C 17.59375 42 13.09375 37.96875 10.59375 30.921875 
z
M 23.09375 0.390625 
C 10.796875 0.390625 10.796875 18.9375 10.796875 22.65625 
C 10.796875 29.90625 14.203125 40.390625 23.5 40.390625 
C 25.203125 40.390625 30.09375 40.390625 33.40625 33.4375 
C 35.203125 29.515625 35.203125 25.375 35.203125 20.34375 
C 35.203125 14.90625 35.203125 10.875 33.09375 6.84375 
C 30.90625 2.703125 27.703125 0.390625 23.09375 0.390625 
z
" id="CMR17-54"/>
      </defs>
      <g transform="translate(26.769853 208.75562)scale(0.14 -0.14)">
       <use transform="scale(0.996264)" xlink:href="#CMR17-54"/>
       <use transform="translate(45.690477 0)scale(0.996264)" xlink:href="#CMR17-48"/>
       <use transform="translate(91.380954 0)scale(0.996264)" xlink:href="#CMR17-48"/>
      </g>
     </g>
    </g>
    <g id="ytick_5">
     <g id="line2d_25">
      <path clip-path="url(#p2d88a316f1)" d="M 54.255319 128.708032 
L 706.557319 128.708032 
" style="fill:none;stroke:#b0b0b0;stroke-linecap:square;stroke-width:0.8;"/>
     </g>
     <g id="line2d_26">
      <g>
       <use style="stroke:#000000;stroke-width:0.8;" x="54.255319" xlink:href="#m2e799cb6b3" y="128.708032"/>
      </g>
     </g>
     <g id="text_14">
      <!-- $800$ -->
      <defs>
       <path d="M 27.203125 35.765625 
C 33.5 38.96875 39.90625 43.796875 39.90625 51.53125 
C 39.90625 60.6875 31.09375 66 23 66 
C 13.90625 66 5.90625 59.375 5.90625 50.234375 
C 5.90625 47.71875 6.5 43.390625 10.40625 39.578125 
C 11.40625 38.578125 15.59375 35.5625 18.296875 33.65625 
C 13.796875 31.34375 3.296875 25.8125 3.296875 14.765625 
C 3.296875 4.40625 13.09375 -2 22.796875 -2 
C 33.5 -2 42.5 5.71875 42.5 15.96875 
C 42.5 25.109375 36.40625 29.328125 32.40625 32.046875 
z
M 14.09375 44.609375 
C 13.296875 45.109375 9.296875 48.21875 9.296875 52.9375 
C 9.296875 59.078125 15.59375 63.6875 22.796875 63.6875 
C 30.703125 63.6875 36.5 58.0625 36.5 51.53125 
C 36.5 42.1875 26.09375 36.859375 25.59375 36.859375 
C 25.5 36.859375 25.40625 36.859375 24.59375 37.46875 
z
M 32.5 24 
C 34 22.90625 38.796875 19.578125 38.796875 13.453125 
C 38.796875 6.015625 31.40625 0.390625 23 0.390625 
C 13.90625 0.390625 7 6.921875 7 14.859375 
C 7 22.796875 13.09375 29.4375 20 32.546875 
z
" id="CMR17-56"/>
      </defs>
      <g transform="translate(26.769853 133.550971)scale(0.14 -0.14)">
       <use transform="scale(0.996264)" xlink:href="#CMR17-56"/>
       <use transform="translate(45.690477 0)scale(0.996264)" xlink:href="#CMR17-48"/>
       <use transform="translate(91.380954 0)scale(0.996264)" xlink:href="#CMR17-48"/>
      </g>
     </g>
    </g>
    <g id="ytick_6">
     <g id="line2d_27">
      <path clip-path="url(#p2d88a316f1)" d="M 54.255319 53.503383 
L 706.557319 53.503383 
" style="fill:none;stroke:#b0b0b0;stroke-linecap:square;stroke-width:0.8;"/>
     </g>
     <g id="line2d_28">
      <g>
       <use style="stroke:#000000;stroke-width:0.8;" x="54.255319" xlink:href="#m2e799cb6b3" y="53.503383"/>
      </g>
     </g>
     <g id="text_15">
      <!-- $1000$ -->
      <g transform="translate(19.941364 58.346321)scale(0.14 -0.14)">
       <use transform="scale(0.996264)" xlink:href="#CMR17-49"/>
       <use transform="translate(45.690477 0)scale(0.996264)" xlink:href="#CMR17-48"/>
       <use transform="translate(91.380954 0)scale(0.996264)" xlink:href="#CMR17-48"/>
       <use transform="translate(137.071431 0)scale(0.996264)" xlink:href="#CMR17-48"/>
      </g>
     </g>
    </g>
    <g id="text_16">
     <!-- $Cutting\ forces\ F_{C},\ F_{T}$ -->
     <defs>
      <path d="M 74.703125 69.09375 
C 74.703125 70 74 70 73.796875 70 
C 73.59375 70 73.203125 70 72.40625 68.984375 
L 65.5 60.640625 
C 62 66.59375 56.5 70 49 70 
C 27.40625 70 5 48.234375 5 24.90625 
C 5 8.328125 16.703125 -2 31.296875 -2 
C 39.296875 -2 46.296875 1.390625 52.09375 6.25 
C 60.796875 13.5 63.40625 23.125 63.40625 23.921875 
C 63.40625 24.8125 62.59375 24.8125 62.296875 24.8125 
C 61.40625 24.8125 61.296875 24.21875 61.09375 23.8125 
C 56.5 8.328125 43 0.890625 33 0.890625 
C 22.40625 0.890625 13.203125 7.640625 13.203125 21.734375 
C 13.203125 24.90625 14.203125 42.171875 25.5 55.171875 
C 31 61.53125 40.40625 67.09375 49.90625 67.09375 
C 60.90625 67.09375 65.796875 58.0625 65.796875 47.9375 
C 65.796875 45.359375 65.5 43.171875 65.5 42.765625 
C 65.5 41.875 66.5 41.875 66.796875 41.875 
C 67.90625 41.875 68 41.984375 68.40625 43.765625 
z
" id="CMMI12-67"/>
      <path d="M 34.09375 5.78125 
C 35.40625 0.1875 40.203125 -1 42.59375 -1 
C 45.796875 -1 48.203125 1.09375 49.796875 4.484375 
C 51.5 8.078125 52.796875 13.953125 52.796875 14.265625 
C 52.796875 14.75 52.40625 15.15625 51.796875 15.15625 
C 50.90625 15.15625 50.796875 14.65625 50.40625 13.15625 
C 48.59375 6.28125 46.796875 1 42.796875 1 
C 39.796875 1 39.796875 4.28125 39.796875 5.578125 
C 39.796875 7.875 40.09375 8.875 41.09375 13.0625 
C 41.796875 15.75 42.5 18.453125 43.09375 21.234375 
L 47.203125 37.5 
C 47.90625 40 47.90625 40.1875 47.90625 40.484375 
C 47.90625 41.984375 46.703125 43 45.203125 43 
C 42.296875 43 41.59375 40.484375 41 38 
C 40 34.109375 34.59375 12.65625 33.90625 9.171875 
C 33.796875 9.171875 29.90625 1 22.59375 1 
C 17.40625 1 16.40625 5.484375 16.40625 9.171875 
C 16.40625 14.859375 19.203125 22.84375 21.796875 29.53125 
C 23 32.71875 23.5 34.015625 23.5 36.015625 
C 23.5 40.296875 20.40625 44 15.59375 44 
C 6.40625 44 2.703125 29.53125 2.703125 28.71875 
C 2.703125 28.328125 3.09375 27.828125 3.796875 27.828125 
C 4.703125 27.828125 4.796875 28.234375 5.203125 29.625 
C 7.59375 38.203125 11.5 41.984375 15.296875 41.984375 
C 16.296875 41.984375 17.90625 41.890625 17.90625 38.703125 
C 17.90625 36.109375 16.796875 33.21875 15.296875 29.421875 
C 10.90625 17.546875 10.40625 13.765625 10.40625 10.765625 
C 10.40625 0.59375 18.09375 -1 22.203125 -1 
C 28.59375 -1 32.09375 3.390625 34.09375 5.78125 
z
" id="CMMI12-117"/>
      <path d="M 20.09375 40.09375 
L 29.296875 40.09375 
C 31.203125 40.09375 32.203125 40.09375 32.203125 41.890625 
C 32.203125 43 31.59375 43 29.59375 43 
L 20.796875 43 
L 24.5 57.25 
C 24.90625 58.625 24.90625 58.8125 24.90625 59.5 
C 24.90625 61.09375 23.59375 62 22.296875 62 
C 21.5 62 19.203125 61.6875 18.40625 58.53125 
L 14.5 43 
L 5.09375 43 
C 3.09375 43 2.203125 43 2.203125 41.09375 
C 2.203125 40.09375 2.90625 40.09375 4.796875 40.09375 
L 13.703125 40.09375 
L 7.09375 13.765625 
C 6.296875 10.265625 6 9.265625 6 7.96875 
C 6 3.28125 9.296875 -1 14.90625 -1 
C 25 -1 30.40625 13.5625 30.40625 14.265625 
C 30.40625 14.859375 30 15.15625 29.40625 15.15625 
C 29.203125 15.15625 28.796875 15.15625 28.59375 14.75 
C 28.5 14.65625 28.40625 14.5625 27.703125 12.96875 
C 25.59375 7.96875 21 1 15.203125 1 
C 12.203125 1 12 3.484375 12 5.6875 
C 12 5.78125 12 7.671875 12.296875 8.875 
z
" id="CMMI12-116"/>
      <path d="M 28.296875 14.265625 
C 28.296875 14.765625 27.90625 15.15625 27.296875 15.15625 
C 26.40625 15.15625 26.296875 14.859375 25.796875 13.15625 
C 23.203125 4.078125 19.09375 1 15.796875 1 
C 14.59375 1 13.203125 1.296875 13.203125 4.28125 
C 13.203125 6.984375 14.40625 9.96875 15.5 12.96875 
L 22.5 31.515625 
C 22.796875 32.3125 23.5 34.109375 23.5 36.015625 
C 23.5 40.203125 20.5 44 15.59375 44 
C 6.40625 44 2.703125 29.53125 2.703125 28.71875 
C 2.703125 28.328125 3.09375 27.828125 3.796875 27.828125 
C 4.703125 27.828125 4.796875 28.234375 5.203125 29.625 
C 7.59375 38 11.40625 41.984375 15.296875 41.984375 
C 16.203125 41.984375 17.90625 41.890625 17.90625 38.703125 
C 17.90625 36.109375 16.59375 32.8125 15.796875 30.625 
L 8.796875 12.0625 
C 8.203125 10.46875 7.59375 8.875 7.59375 7.078125 
C 7.59375 2.59375 10.703125 -1 15.5 -1 
C 24.703125 -1 28.296875 13.5625 28.296875 14.265625 
z
M 27.5 62.6875 
C 27.5 64.1875 26.296875 66 24.09375 66 
C 21.796875 66 19.203125 63.796875 19.203125 61.1875 
C 19.203125 58.6875 21.296875 57.890625 22.5 57.890625 
C 25.203125 57.890625 27.5 60.484375 27.5 62.6875 
z
" id="CMMI12-105"/>
      <path d="M 44.59375 40.09375 
C 46.59375 40.09375 47.40625 40.09375 47.40625 41.984375 
C 47.40625 43 46.59375 43 44.796875 43 
L 36.703125 43 
C 38.59375 53.09375 40 60.09375 40.796875 63.296875 
C 41.40625 65.6875 43.5 67.984375 46.09375 67.984375 
C 48.203125 67.984375 50.296875 67.09375 51.296875 66.1875 
C 47.40625 65.796875 46.203125 62.890625 46.203125 61.1875 
C 46.203125 59.1875 47.703125 58 49.59375 58 
C 51.59375 58 54.59375 59.6875 54.59375 63.5 
C 54.59375 67.6875 50.40625 70 46 70 
C 41.703125 70 37.5 66.796875 35.5 62.890625 
C 33.703125 59.390625 32.703125 55.828125 30.40625 43 
L 23.703125 43 
C 21.796875 43 20.796875 43 20.796875 41.1875 
C 20.796875 40.09375 21.40625 40.09375 23.40625 40.09375 
L 29.796875 40.09375 
C 28 30.890625 23.90625 8.515625 21.59375 -2.0625 
C 19.90625 -10.703125 18.40625 -18 13.40625 -18 
C 13.09375 -18 10.203125 -18 8.40625 -16.109375 
C 13.5 -15.703125 13.5 -11.3125 13.5 -11.203125 
C 13.5 -9.203125 12 -8 10.09375 -8 
C 8.09375 -8 5.09375 -9.703125 5.09375 -13.515625 
C 5.09375 -17.8125 9.5 -20 13.40625 -20 
C 23.59375 -20 27.796875 -1.765625 28.90625 3.171875 
C 30.703125 10.796875 35.59375 37.125 36.09375 40.09375 
z
" id="CMMI12-102"/>
      <path d="M 45.59375 27.421875 
C 45.59375 36.90625 39.40625 44 30.296875 44 
C 17.09375 44 4.09375 29.625 4.09375 15.5625 
C 4.09375 6.078125 10.296875 -1 19.40625 -1 
C 32.703125 -1 45.59375 13.359375 45.59375 27.421875 
z
M 19.5 1 
C 14.5 1 10.796875 4.984375 10.796875 11.96875 
C 10.796875 16.5625 13.203125 26.734375 16 31.71875 
C 20.5 39.40625 26.09375 41.984375 30.203125 41.984375 
C 35.09375 41.984375 38.90625 38 38.90625 31.015625 
C 38.90625 27.03125 36.796875 16.359375 33 10.265625 
C 28.90625 3.59375 23.40625 1 19.5 1 
z
" id="CMMI12-111"/>
      <path d="M 39.09375 38 
C 37.203125 38 36.296875 38 34.90625 36.796875 
C 34.296875 36.296875 33.203125 34.796875 33.203125 33.1875 
C 33.203125 31.1875 34.703125 29.984375 36.59375 29.984375 
C 39 29.984375 41.703125 31.984375 41.703125 35.984375 
C 41.703125 40.484375 37.09375 44 30.203125 44 
C 17.09375 44 4 30.1875 4 15.796875 
C 4 6.96875 9.40625 -1 19.59375 -1 
C 33.203125 -1 41.796875 9.71875 41.796875 11.03125 
C 41.796875 11.640625 41.203125 12.140625 40.796875 12.140625 
C 40.5 12.140625 40.40625 12.046875 39.5 11.125 
C 33.09375 2.515625 23.59375 1 19.796875 1 
C 12.90625 1 10.703125 7.078125 10.703125 12.140625 
C 10.703125 15.6875 12.40625 25.53125 16 32.390625 
C 18.59375 37.09375 24 41.984375 30.296875 41.984375 
C 31.59375 41.984375 37.09375 41.8125 39.09375 38 
z
" id="CMMI12-99"/>
      <path d="M 22.796875 20.15625 
C 24.5 19.859375 27.203125 19.265625 27.796875 19.171875 
C 29.09375 18.765625 33.59375 17.171875 33.59375 12.390625 
C 33.59375 9.296875 30.796875 1 19.203125 1 
C 17.09375 1 9.59375 1.296875 7.59375 6.984375 
C 11.59375 6.46875 13.59375 9.59375 13.59375 11.796875 
C 13.59375 13.890625 12.203125 15 10.203125 15 
C 8 15 5.09375 13.296875 5.09375 8.796875 
C 5.09375 2.75 11.09375 -1 19.09375 -1 
C 34.296875 -1 38.796875 10.390625 38.796875 15.59375 
C 38.796875 17.078125 38.796875 19.859375 35.59375 23.046875 
C 33.09375 25.421875 30.703125 25.921875 25.296875 27.015625 
C 22.59375 27.609375 18.296875 28.5 18.296875 32.984375 
C 18.296875 34.984375 20.09375 41.984375 29.59375 41.984375 
C 33.796875 41.984375 37.90625 40.453125 38.90625 37 
C 34.5 37 34.296875 33.1875 34.296875 33.09375 
C 34.296875 30.984375 36.203125 30.390625 37.09375 30.390625 
C 38.5 30.390625 41.296875 31.484375 41.296875 35.6875 
C 41.296875 39.78125 37.5 44 29.703125 44 
C 16.59375 44 13.09375 33.890625 13.09375 29.796875 
C 13.09375 22.25 20.5 20.65625 22.796875 20.15625 
z
" id="CMMI12-115"/>
      <path d="M 29.703125 32.09375 
L 39.296875 32.09375 
C 46.90625 32.09375 47.5 30.421875 47.5 27.5625 
C 47.5 26.296875 47.296875 24.921875 46.796875 22.75 
C 46.59375 22.359375 46.5 21.859375 46.5 21.671875 
C 46.5 20.984375 46.90625 20.59375 47.59375 20.59375 
C 48.40625 20.59375 48.5 20.984375 48.90625 22.5625 
L 54.703125 45.765625 
C 54.703125 46.171875 54.40625 46.765625 53.703125 46.765625 
C 52.796875 46.765625 52.703125 46.375 52.296875 44.65625 
C 50.203125 37.109375 48.203125 35 39.5 35 
L 30.40625 35 
L 36.90625 61.0625 
C 37.796875 64.59375 38 64.890625 42.09375 64.890625 
L 55.5 64.890625 
C 68 64.890625 69.796875 61.171875 69.796875 54.015625 
C 69.796875 53.421875 69.796875 51.203125 69.5 48.578125 
C 69.40625 48.1875 69.203125 46.875 69.203125 46.46875 
C 69.203125 45.65625 69.703125 45.359375 70.296875 45.359375 
C 71 45.359375 71.40625 45.765625 71.59375 47.578125 
L 73.703125 65.1875 
C 73.703125 65.484375 73.90625 66.484375 73.90625 66.6875 
C 73.90625 67.796875 73 67.796875 71.203125 67.796875 
L 23.796875 67.796875 
C 21.90625 67.796875 20.90625 67.796875 20.90625 65.984375 
C 20.90625 64.890625 21.59375 64.890625 23.296875 64.890625 
C 29.5 64.890625 29.5 64.1875 29.5 63.078125 
C 29.5 62.578125 29.40625 62.171875 29.09375 61.0625 
L 15.59375 7.3125 
C 14.703125 3.875 14.5 2.890625 7.5 2.890625 
C 5.59375 2.890625 4.59375 2.890625 4.59375 1.09375 
C 4.59375 0 5.5 0 6.09375 0 
C 8 0 10 0.1875 11.90625 0.1875 
L 24.90625 0.1875 
C 27.09375 0.1875 29.5 0 31.703125 0 
C 32.59375 0 33.796875 0 33.796875 1.796875 
C 33.796875 2.890625 33.203125 2.890625 31 2.890625 
C 23.09375 2.890625 22.90625 3.578125 22.90625 5.0625 
C 22.90625 5.546875 23.09375 6.328125 23.296875 7.015625 
z
" id="CMMI12-70"/>
      <path d="M 19.5 -0.40625 
C 19.5 5.390625 17.59375 9.6875 13.5 9.6875 
C 10.296875 9.6875 8.703125 7.09375 8.703125 4.890625 
C 8.703125 2.6875 10.203125 0 13.59375 0 
C 14.90625 0 16 0.390625 16.90625 1.296875 
C 17.09375 1.5 17.203125 1.5 17.296875 1.5 
C 17.5 1.5 17.5 0.09375 17.5 -0.40625 
C 17.5 -3.640625 16.90625 -10.03125 11.09375 -16.421875 
C 10 -17.609375 10 -17.8125 10 -18 
C 10 -18.5 10.5 -19 11 -19 
C 11.796875 -19 19.5 -11.703125 19.5 -0.40625 
z
" id="CMMI12-59"/>
      <path d="M 41.703125 60.71875 
C 42.296875 63.09375 42.5 64 44 64.390625 
C 44.796875 64.59375 48.09375 64.59375 50.203125 64.59375 
C 60.203125 64.59375 64.90625 64.203125 64.90625 56.4375 
C 64.90625 54.9375 64.5 51.15625 63.90625 47.46875 
L 63.796875 46.28125 
C 63.796875 45.890625 64.203125 45.28125 64.796875 45.28125 
C 65.796875 45.28125 65.796875 45.78125 66.09375 47.375 
L 69 64.984375 
C 69.203125 65.890625 69.203125 66.09375 69.203125 66.390625 
C 69.203125 67.484375 68.59375 67.484375 66.59375 67.484375 
L 11.90625 67.484375 
C 9.59375 67.484375 9.5 67.390625 8.90625 65.59375 
L 2.796875 47.671875 
C 2.703125 47.46875 2.40625 46.375 2.40625 46.28125 
C 2.40625 45.78125 2.796875 45.28125 3.40625 45.28125 
C 4.203125 45.28125 4.40625 45.6875 4.796875 46.984375 
C 9 59.015625 11.09375 64.59375 24.40625 64.59375 
L 31.09375 64.59375 
C 33.5 64.59375 34.5 64.59375 34.5 63.5 
C 34.5 63.203125 34.5 63 34 61.203125 
L 20.59375 7.765625 
C 19.59375 3.890625 19.40625 2.890625 8.796875 2.890625 
C 6.296875 2.890625 5.59375 2.890625 5.59375 1 
C 5.59375 0 6.703125 0 7.203125 0 
C 9.703125 0 12.296875 0.1875 14.796875 0.1875 
L 30.40625 0.1875 
C 32.90625 0.1875 35.59375 0 38.09375 0 
C 39.203125 0 40.203125 0 40.203125 1.890625 
C 40.203125 2.890625 39.5 2.890625 36.90625 2.890625 
C 27.90625 2.890625 27.90625 3.78125 27.90625 5.28125 
C 27.90625 5.375 27.90625 6.078125 28.296875 7.671875 
z
" id="CMMI12-84"/>
     </defs>
     <g transform="translate(12.4533 326.72574)rotate(-90)scale(0.18 -0.18)">
      <use transform="translate(0 14.943915)scale(0.996264)" xlink:href="#CMMI12-67"/>
      <use transform="translate(76.946847 14.943915)scale(0.996264)" xlink:href="#CMMI12-117"/>
      <use transform="translate(132.467176 14.943915)scale(0.996264)" xlink:href="#CMMI12-116"/>
      <use transform="translate(167.693507 14.943915)scale(0.996264)" xlink:href="#CMMI12-116"/>
      <use transform="translate(202.919837 14.943915)scale(0.996264)" xlink:href="#CMMI12-105"/>
      <use transform="translate(236.198439 14.943915)scale(0.996264)" xlink:href="#CMMI12-110"/>
      <use transform="translate(294.428486 14.943915)scale(0.996264)" xlink:href="#CMMI12-103"/>
      <use transform="translate(375.943088 14.943915)scale(0.996264)" xlink:href="#CMMI12-102"/>
      <use transform="translate(434.663393 14.943915)scale(0.996264)" xlink:href="#CMMI12-111"/>
      <use transform="translate(481.558703 14.943915)scale(0.996264)" xlink:href="#CMMI12-114"/>
      <use transform="translate(528.229315 14.943915)scale(0.996264)" xlink:href="#CMMI12-99"/>
      <use transform="translate(570.212548 14.943915)scale(0.996264)" xlink:href="#CMMI12-101"/>
      <use transform="translate(615.424549 14.943915)scale(0.996264)" xlink:href="#CMMI12-115"/>
      <use transform="translate(692.60371 14.943915)scale(0.996264)" xlink:href="#CMMI12-70"/>
      <use transform="translate(755.751914 0)scale(0.697382)" xlink:href="#CMMI12-67"/>
      <use transform="translate(810.11259 14.943915)scale(0.996264)" xlink:href="#CMMI12-59"/>
      <use transform="translate(885.043286 14.943915)scale(0.996264)" xlink:href="#CMMI12-70"/>
      <use transform="translate(948.19149 0)scale(0.697382)" xlink:href="#CMMI12-84"/>
     </g>
    </g>
   </g>
   <g id="line2d_29">
    <path clip-path="url(#p2d88a316f1)" d="M 54.255319 33.238139 
L 60.844228 45.317986 
L 67.433137 56.580438 
L 74.022046 67.109087 
L 80.610955 76.975364 
L 87.199864 86.240619 
L 93.788773 94.960918 
L 100.377682 103.18308 
L 106.966592 110.950932 
L 113.555501 118.301008 
L 120.14441 125.268044 
L 126.733319 131.881222 
L 133.322228 138.167753 
L 139.911137 144.151823 
L 146.500046 149.854948 
L 153.088955 155.297326 
L 159.677864 160.496889 
L 166.266773 165.46902 
L 172.855682 170.2295 
L 179.444592 174.79082 
L 186.033501 180.447901 
L 192.62241 184.512401 
L 199.211319 188.410785 
L 205.800228 192.153324 
L 212.389137 195.748183 
L 218.978046 199.203581 
L 225.566955 202.527371 
L 232.155864 205.726445 
L 238.744773 208.806907 
L 245.333682 211.774792 
L 251.922592 214.636006 
L 258.511501 218.268249 
L 265.10041 221.011576 
L 271.689319 223.668811 
L 278.278228 226.238089 
L 284.867137 228.72321 
L 291.456046 231.128156 
L 298.044955 233.45622 
L 304.633864 235.710651 
L 311.222773 237.894629 
L 317.811682 240.010769 
L 324.400592 242.061928 
L 330.989501 244.05067 
L 337.57841 245.979289 
L 344.167319 247.85035 
L 350.756228 249.665878 
L 357.345137 251.427946 
L 363.934046 253.138516 
L 370.522955 254.799471 
L 377.111864 256.41272 
L 383.700773 257.979746 
L 390.289682 259.502341 
L 396.878592 260.98211 
L 403.467501 262.420618 
L 410.05641 263.819394 
L 416.645319 265.179951 
L 423.234228 266.503791 
L 429.823137 267.792327 
L 436.412046 269.047333 
L 443.000955 270.270311 
L 449.589864 271.462989 
L 456.178773 273.264944 
L 462.767682 275.206951 
L 469.356592 277.125005 
L 475.945501 279.019907 
L 482.53441 280.892423 
L 489.123319 282.743285 
L 495.712228 284.573198 
L 502.301137 286.382835 
L 508.890046 288.172843 
L 515.478955 289.943843 
L 522.067864 291.696431 
L 528.656773 293.431296 
L 535.245682 295.148753 
L 541.834592 296.849451 
L 548.423501 298.533901 
L 555.01241 300.202592 
L 561.601319 301.855997 
L 568.190228 303.494569 
L 574.779137 305.118748 
L 581.368046 306.728955 
L 587.956955 308.325597 
L 594.545864 309.909069 
L 601.134773 311.479748 
L 607.723682 313.038 
L 614.312592 314.58418 
L 620.901501 316.118629 
L 627.49041 317.641676 
L 634.079319 319.153641 
L 640.668228 320.654833 
L 647.257137 322.145549 
L 653.846046 323.626078 
L 660.434955 325.0967 
L 667.023864 326.557685 
L 673.612773 328.009296 
L 680.201682 329.451786 
L 686.790592 330.8854 
L 693.379501 332.310294 
L 699.96841 333.726863 
L 706.557319 335.13525 
" style="fill:none;stroke:#ff0000;stroke-linecap:square;stroke-width:2;"/>
   </g>
   <g id="line2d_30">
    <path clip-path="url(#p2d88a316f1)" d="M 54.255319 41.853279 
L 60.844228 59.494029 
L 67.433137 75.907146 
L 74.022046 91.214967 
L 80.610955 105.523293 
L 87.199864 118.924243 
L 93.788773 131.500267 
L 100.377682 143.322624 
L 106.966592 154.455964 
L 113.555501 164.956441 
L 120.14441 174.875404 
L 126.733319 184.257846 
L 133.322228 193.144746 
L 139.911137 201.572876 
L 146.500046 209.575308 
L 153.088955 217.182358 
L 159.677864 224.421344 
L 166.266773 231.316732 
L 172.855682 237.891618 
L 179.444592 244.16628 
L 186.033501 255.009443 
L 192.62241 260.117818 
L 199.211319 265.004641 
L 205.800228 269.683064 
L 212.389137 274.165 
L 218.978046 278.461618 
L 225.566955 282.583272 
L 232.155864 286.53954 
L 238.744773 290.33924 
L 245.333682 293.99066 
L 251.922592 297.501552 
L 258.511501 303.449324 
L 265.10041 306.881443 
L 271.689319 310.204088 
L 278.278228 313.405163 
L 284.867137 316.490482 
L 291.456046 319.465573 
L 298.044955 322.335546 
L 304.633864 325.105219 
L 311.222773 327.779156 
L 317.811682 330.361578 
L 324.400592 332.856536 
L 330.989501 335.267818 
L 337.57841 337.598989 
L 344.167319 339.853461 
L 350.756228 342.034405 
L 357.345137 344.144853 
L 363.934046 346.187654 
L 370.522955 348.165524 
L 377.111864 350.081036 
L 383.700773 351.936614 
L 390.289682 353.734582 
L 396.878592 355.477137 
L 403.467501 357.166372 
L 410.05641 358.804279 
L 416.645319 360.392756 
L 423.234228 361.93361 
L 429.823137 363.428568 
L 436.412046 364.879283 
L 443.000955 366.287334 
L 449.589864 367.654243 
L 456.178773 370.17411 
L 462.767682 372.938541 
L 469.356592 375.637923 
L 475.945501 378.274305 
L 482.53441 380.849647 
L 489.123319 383.365823 
L 495.712228 385.824627 
L 502.301137 388.227778 
L 508.890046 390.57692 
L 515.478955 392.87363 
L 522.067864 395.119419 
L 528.656773 397.315765 
L 535.245682 399.464001 
L 541.834592 401.565493 
L 548.423501 403.62152 
L 555.01241 405.633314 
L 561.601319 407.602056 
L 568.190228 409.528883 
L 574.779137 411.414888 
L 581.368046 413.261119 
L 587.956955 415.068586 
L 594.545864 416.838262 
L 601.134773 418.571082 
L 607.723682 420.267945 
L 614.312592 421.929717 
L 620.901501 423.557234 
L 627.49041 425.151299 
L 634.079319 426.712685 
L 640.668228 428.24214 
L 647.257137 429.740382 
L 653.846046 431.208104 
L 660.434955 432.645974 
L 667.023864 434.054635 
L 673.612773 435.434709 
L 680.201682 436.786794 
L 686.790592 438.111468 
L 693.379501 439.409296 
L 699.96841 440.680799 
L 706.557319 441.926502 
" style="fill:none;stroke:#0000ff;stroke-linecap:square;stroke-width:2;"/>
   </g>
   <g id="patch_3">
    <path d="M 54.255319 462.360921 
L 54.255319 12.803721 
" style="fill:none;stroke:#000000;stroke-linecap:square;stroke-linejoin:miter;stroke-width:0.8;"/>
   </g>
   <g id="patch_4">
    <path d="M 706.557319 462.360921 
L 706.557319 12.803721 
" style="fill:none;stroke:#000000;stroke-linecap:square;stroke-linejoin:miter;stroke-width:0.8;"/>
   </g>
   <g id="patch_5">
    <path d="M 54.255319 462.360921 
L 706.557319 462.360921 
" style="fill:none;stroke:#000000;stroke-linecap:square;stroke-linejoin:miter;stroke-width:0.8;"/>
   </g>
   <g id="patch_6">
    <path d="M 54.255319 12.803721 
L 706.557319 12.803721 
" style="fill:none;stroke:#000000;stroke-linecap:square;stroke-linejoin:miter;stroke-width:0.8;"/>
   </g>
   <g id="text_17">
    <!--  $\phi=18.945$ -->
    <defs>
     <path d="M 64.296875 32 
C 65.796875 32 67.296875 32 67.296875 33.6875 
C 67.296875 35.5 65.59375 35.5 63.90625 35.5 
L 8 35.5 
C 6.296875 35.5 4.59375 35.5 4.59375 33.6875 
C 4.59375 32 6.09375 32 7.59375 32 
z
M 63.90625 14.484375 
C 65.59375 14.484375 67.296875 14.484375 67.296875 16.296875 
C 67.296875 18 65.796875 18 64.296875 18 
L 7.59375 18 
C 6.09375 18 4.59375 18 4.59375 16.296875 
C 4.59375 14.484375 6.296875 14.484375 8 14.484375 
z
" id="CMR17-61"/>
     <path d="M 18.40625 4.796875 
C 18.40625 7.6875 16 9.6875 13.59375 9.6875 
C 10.703125 9.6875 8.703125 7.296875 8.703125 4.890625 
C 8.703125 2 11.09375 0 13.5 0 
C 16.40625 0 18.40625 2.390625 18.40625 4.796875 
z
" id="CMMI12-58"/>
     <path d="M 35.203125 29.234375 
C 35.203125 7 26.09375 0.390625 18.59375 0.390625 
C 16.296875 0.390625 10.703125 0.671875 8.40625 4.390625 
C 11 4 12.90625 5.390625 12.90625 7.890625 
C 12.90625 10.59375 10.703125 11.5 9.296875 11.5 
C 8.40625 11.5 5.703125 11.09375 5.703125 7.6875 
C 5.703125 1.0625 11.59375 -2 18.796875 -2 
C 30.296875 -2 42 10.390625 42 32.65625 
C 42 60.265625 30.796875 66 23.203125 66 
C 13.296875 66 3.796875 57.25 3.796875 43.75 
C 3.796875 31.25 11.90625 22 22.09375 22 
C 30.5 22 34.203125 29.84375 35.203125 33.15625 
z
M 22.296875 23.59375 
C 19.59375 23.59375 15.796875 24.09375 12.703125 30.140625 
C 10.59375 34.078125 10.59375 38.703125 10.59375 43.640625 
C 10.59375 49.59375 10.59375 53.71875 13.40625 58.15625 
C 14.796875 60.265625 17.40625 63.6875 23.203125 63.6875 
C 35 63.6875 35 45.453125 35 41.421875 
C 35 34.265625 31.796875 23.59375 22.296875 23.59375 
z
" id="CMR17-57"/>
    </defs>
    <g transform="translate(247.205916 33.238139)scale(0.18 -0.18)">
     <use transform="scale(0.996264)" xlink:href="#CMMI12-30"/>
     <use transform="translate(85.408189 0)scale(0.996264)" xlink:href="#CMR17-61"/>
     <use transform="translate(184.796986 0)scale(0.996264)" xlink:href="#CMR17-49"/>
     <use transform="translate(230.487463 0)scale(0.996264)" xlink:href="#CMR17-56"/>
     <use transform="translate(276.177941 0)scale(0.996264)" xlink:href="#CMMI12-58"/>
     <use transform="translate(303.275118 0)scale(0.996264)" xlink:href="#CMR17-57"/>
     <use transform="translate(348.965595 0)scale(0.996264)" xlink:href="#CMR17-52"/>
     <use transform="translate(394.656072 0)scale(0.996264)" xlink:href="#CMR17-53"/>
    </g>
   </g>
  </g>
  <g id="axes_2">
   <g id="matplotlib.axis_3">
    <g id="ytick_7">
     <g id="line2d_31">
      <defs>
       <path d="M 0 0 
L 3.5 0 
" id="m16fa38a347" style="stroke:#000000;stroke-width:0.8;"/>
      </defs>
      <g>
       <use style="stroke:#000000;stroke-width:0.8;" x="706.557319" xlink:href="#m16fa38a347" y="443.240144"/>
      </g>
     </g>
     <g id="text_18">
      <!-- $0.0$ -->
      <g transform="translate(713.557319 448.083083)scale(0.14 -0.14)">
       <use transform="scale(0.996264)" xlink:href="#CMR17-48"/>
       <use transform="translate(45.690477 0)scale(0.996264)" xlink:href="#CMMI12-58"/>
       <use transform="translate(72.787654 0)scale(0.996264)" xlink:href="#CMR17-48"/>
      </g>
     </g>
    </g>
    <g id="ytick_8">
     <g id="line2d_32">
      <g>
       <use style="stroke:#000000;stroke-width:0.8;" x="706.557319" xlink:href="#m16fa38a347" y="386.853457"/>
      </g>
     </g>
     <g id="text_19">
      <!-- $0.2$ -->
      <g transform="translate(713.557319 391.696395)scale(0.14 -0.14)">
       <use transform="scale(0.996264)" xlink:href="#CMR17-48"/>
       <use transform="translate(45.690477 0)scale(0.996264)" xlink:href="#CMMI12-58"/>
       <use transform="translate(72.787654 0)scale(0.996264)" xlink:href="#CMR17-50"/>
      </g>
     </g>
    </g>
    <g id="ytick_9">
     <g id="line2d_33">
      <g>
       <use style="stroke:#000000;stroke-width:0.8;" x="706.557319" xlink:href="#m16fa38a347" y="330.466769"/>
      </g>
     </g>
     <g id="text_20">
      <!-- $0.4$ -->
      <g transform="translate(713.557319 335.309707)scale(0.14 -0.14)">
       <use transform="scale(0.996264)" xlink:href="#CMR17-48"/>
       <use transform="translate(45.690477 0)scale(0.996264)" xlink:href="#CMMI12-58"/>
       <use transform="translate(72.787654 0)scale(0.996264)" xlink:href="#CMR17-52"/>
      </g>
     </g>
    </g>
    <g id="ytick_10">
     <g id="line2d_34">
      <g>
       <use style="stroke:#000000;stroke-width:0.8;" x="706.557319" xlink:href="#m16fa38a347" y="274.080081"/>
      </g>
     </g>
     <g id="text_21">
      <!-- $0.6$ -->
      <g transform="translate(713.557319 278.92302)scale(0.14 -0.14)">
       <use transform="scale(0.996264)" xlink:href="#CMR17-48"/>
       <use transform="translate(45.690477 0)scale(0.996264)" xlink:href="#CMMI12-58"/>
       <use transform="translate(72.787654 0)scale(0.996264)" xlink:href="#CMR17-54"/>
      </g>
     </g>
    </g>
    <g id="ytick_11">
     <g id="line2d_35">
      <g>
       <use style="stroke:#000000;stroke-width:0.8;" x="706.557319" xlink:href="#m16fa38a347" y="217.693394"/>
      </g>
     </g>
     <g id="text_22">
      <!-- $0.8$ -->
      <g transform="translate(713.557319 222.536332)scale(0.14 -0.14)">
       <use transform="scale(0.996264)" xlink:href="#CMR17-48"/>
       <use transform="translate(45.690477 0)scale(0.996264)" xlink:href="#CMMI12-58"/>
       <use transform="translate(72.787654 0)scale(0.996264)" xlink:href="#CMR17-56"/>
      </g>
     </g>
    </g>
    <g id="ytick_12">
     <g id="line2d_36">
      <g>
       <use style="stroke:#000000;stroke-width:0.8;" x="706.557319" xlink:href="#m16fa38a347" y="161.306706"/>
      </g>
     </g>
     <g id="text_23">
      <!-- $1.0$ -->
      <g transform="translate(713.557319 166.149644)scale(0.14 -0.14)">
       <use transform="scale(0.996264)" xlink:href="#CMR17-49"/>
       <use transform="translate(45.690477 0)scale(0.996264)" xlink:href="#CMMI12-58"/>
       <use transform="translate(72.787654 0)scale(0.996264)" xlink:href="#CMR17-48"/>
      </g>
     </g>
    </g>
    <g id="ytick_13">
     <g id="line2d_37">
      <g>
       <use style="stroke:#000000;stroke-width:0.8;" x="706.557319" xlink:href="#m16fa38a347" y="104.920019"/>
      </g>
     </g>
     <g id="text_24">
      <!-- $1.2$ -->
      <g transform="translate(713.557319 109.762957)scale(0.14 -0.14)">
       <use transform="scale(0.996264)" xlink:href="#CMR17-49"/>
       <use transform="translate(45.690477 0)scale(0.996264)" xlink:href="#CMMI12-58"/>
       <use transform="translate(72.787654 0)scale(0.996264)" xlink:href="#CMR17-50"/>
      </g>
     </g>
    </g>
    <g id="ytick_14">
     <g id="line2d_38">
      <g>
       <use style="stroke:#000000;stroke-width:0.8;" x="706.557319" xlink:href="#m16fa38a347" y="48.533331"/>
      </g>
     </g>
     <g id="text_25">
      <!-- $1.4$ -->
      <g transform="translate(713.557319 53.376269)scale(0.14 -0.14)">
       <use transform="scale(0.996264)" xlink:href="#CMR17-49"/>
       <use transform="translate(45.690477 0)scale(0.996264)" xlink:href="#CMMI12-58"/>
       <use transform="translate(72.787654 0)scale(0.996264)" xlink:href="#CMR17-52"/>
      </g>
     </g>
    </g>
    <g id="text_26">
     <!-- $Error\ \Delta F$ -->
     <defs>
      <path d="M 69.5 23.265625 
C 69.59375 23.5625 69.90625 24.265625 69.90625 24.65625 
C 69.90625 25.171875 69.5 25.671875 68.90625 25.671875 
C 68.5 25.671875 68.296875 25.5625 68 25.265625 
C 67.796875 25.171875 67.796875 24.96875 66.90625 22.953125 
C 61 8.90625 56.703125 2.890625 40.703125 2.890625 
L 26.09375 2.890625 
C 24.703125 2.890625 24.5 2.890625 23.90625 3 
C 22.796875 3.09375 22.703125 3.296875 22.703125 4.09375 
C 22.703125 4.796875 22.90625 5.40625 23.09375 6.296875 
L 30 34 
L 39.90625 34 
C 47.703125 34 48.296875 32.28125 48.296875 29.28125 
C 48.296875 28.28125 48.296875 27.375 47.59375 24.359375 
C 47.40625 23.96875 47.296875 23.5625 47.296875 23.265625 
C 47.296875 22.5625 47.796875 22.25 48.40625 22.25 
C 49.296875 22.25 49.40625 22.953125 49.796875 24.359375 
L 55.5 47.4375 
C 55.5 47.9375 55.09375 48.421875 54.5 48.421875 
C 53.59375 48.421875 53.5 48.03125 53.09375 46.65625 
C 51.09375 39.0625 49.09375 36.890625 40.203125 36.890625 
L 30.703125 36.890625 
L 36.90625 61.140625 
C 37.796875 64.59375 38 64.890625 42.09375 64.890625 
L 56.40625 64.890625 
C 68.703125 64.890625 71.203125 61.640625 71.203125 54.140625 
C 71.203125 54.046875 71.203125 51.28125 70.796875 48.03125 
C 70.703125 47.640625 70.59375 47.046875 70.59375 46.84375 
C 70.59375 46.0625 71.09375 45.765625 71.703125 45.765625 
C 72.40625 45.765625 72.796875 46.15625 73 47.9375 
L 75.09375 65.1875 
C 75.09375 65.484375 75.296875 66.484375 75.296875 66.6875 
C 75.296875 67.796875 74.40625 67.796875 72.59375 67.796875 
L 23.796875 67.796875 
C 21.90625 67.796875 20.90625 67.796875 20.90625 65.984375 
C 20.90625 64.890625 21.59375 64.890625 23.296875 64.890625 
C 29.5 64.890625 29.5 64.203125 29.5 63.109375 
C 29.5 62.625 29.40625 62.234375 29.09375 61.140625 
L 15.59375 7.40625 
C 14.703125 3.890625 14.5 2.890625 7.5 2.890625 
C 5.59375 2.890625 4.59375 2.890625 4.59375 1.09375 
C 4.59375 0 5.203125 0 7.203125 0 
L 57.40625 0 
C 59.59375 0 59.703125 0.09375 60.40625 1.6875 
z
" id="CMMI12-69"/>
      <path d="M 40.59375 69.296875 
C 39.796875 71 39.40625 71 38.59375 71 
C 37.40625 71 37.296875 70.796875 36.59375 69.390625 
L 4.203125 1.6875 
C 4.09375 1.5 3.703125 0.59375 3.703125 0.5 
C 3.703125 0.09375 3.796875 0 5.59375 0 
L 71.5 0 
C 73.296875 0 73.40625 0.09375 73.40625 0.5 
C 73.40625 0.59375 73 1.5 72.90625 1.6875 
z
M 36.09375 63.375 
L 63.796875 5.59375 
L 8.296875 5.59375 
z
" id="CMR17-1"/>
     </defs>
     <g transform="translate(747.461201 276.845309)rotate(-90)scale(0.18 -0.18)">
      <use transform="scale(0.996264)" xlink:href="#CMMI12-69"/>
      <use transform="translate(78.051636 0)scale(0.996264)" xlink:href="#CMMI12-114"/>
      <use transform="translate(124.722248 0)scale(0.996264)" xlink:href="#CMMI12-114"/>
      <use transform="translate(171.39286 0)scale(0.996264)" xlink:href="#CMMI12-111"/>
      <use transform="translate(218.28817 0)scale(0.996264)" xlink:href="#CMMI12-114"/>
      <use transform="translate(296.187895 0)scale(0.996264)" xlink:href="#CMR17-1"/>
      <use transform="translate(373.107485 0)scale(0.996264)" xlink:href="#CMMI12-70"/>
     </g>
    </g>
    <g id="text_27">
     <!-- $\times10^{9}$ -->
     <defs>
      <path d="M 38.90625 27.734375 
L 18.90625 47.59375 
C 17.703125 48.796875 17.5 49 16.703125 49 
C 15.703125 49 14.703125 48.09375 14.703125 47 
C 14.703125 46.296875 14.90625 46.09375 16 45 
L 36 24.9375 
L 16 4.890625 
C 14.90625 3.796875 14.703125 3.59375 14.703125 2.890625 
C 14.703125 1.796875 15.703125 0.890625 16.703125 0.890625 
C 17.5 0.890625 17.703125 1.09375 18.90625 2.296875 
L 38.796875 22.15625 
L 59.5 1.484375 
C 59.703125 1.390625 60.40625 0.890625 61 0.890625 
C 62.203125 0.890625 63 1.796875 63 2.890625 
C 63 3.09375 63 3.484375 62.703125 3.984375 
C 62.59375 4.1875 46.703125 19.859375 41.703125 24.9375 
L 60 43.203125 
C 60.5 43.796875 62 45.09375 62.5 45.703125 
C 62.59375 45.890625 63 46.296875 63 47 
C 63 48.09375 62.203125 49 61 49 
C 60.203125 49 59.796875 48.59375 58.703125 47.5 
z
" id="CMSY10-2"/>
     </defs>
     <g transform="translate(677.03488 9.803721)scale(0.14 -0.14)">
      <use transform="scale(0.996264)" xlink:href="#CMSY10-2"/>
      <use transform="translate(77.487468 0)scale(0.996264)" xlink:href="#CMR17-49"/>
      <use transform="translate(123.177945 0)scale(0.996264)" xlink:href="#CMR17-48"/>
      <use transform="translate(168.868422 36.153639)scale(0.697382)" xlink:href="#CMR17-57"/>
     </g>
    </g>
   </g>
   <g id="line2d_39">
    <path clip-path="url(#p2d88a316f1)" d="M 54.255319 381.020975 
L 60.844228 382.740849 
L 67.433137 384.517175 
L 74.022046 386.348669 
L 80.610955 388.233212 
L 87.199864 390.167991 
L 93.788773 392.15276 
L 100.377682 394.184807 
L 106.966592 396.26417 
L 113.555501 398.388479 
L 120.14441 400.557898 
L 126.733319 402.770622 
L 133.322228 405.026133 
L 139.911137 407.323661 
L 146.500046 409.662183 
L 153.088955 412.041588 
L 159.677864 414.461365 
L 166.266773 416.919994 
L 172.855682 419.418104 
L 179.444592 421.954063 
L 186.033501 416.758864 
L 192.62241 420.142015 
L 199.211319 423.551342 
L 205.800228 426.987674 
L 212.389137 430.449734 
L 218.978046 433.937391 
L 225.566955 437.450931 
L 232.155864 440.989988 
L 238.744773 441.926502 
L 245.333682 438.338135 
L 251.922592 434.724905 
L 258.511501 437.526419 
L 265.10041 434.09022 
L 271.689319 430.741677 
L 278.278228 427.363469 
L 284.867137 423.956065 
L 291.456046 420.519365 
L 298.044955 417.05387 
L 304.633864 413.559856 
L 311.222773 410.037448 
L 317.811682 406.487228 
L 324.400592 402.909286 
L 330.989501 399.303882 
L 337.57841 395.67143 
L 344.167319 392.011853 
L 350.756228 388.325589 
L 357.345137 384.612888 
L 363.934046 380.874003 
L 370.522955 377.109184 
L 377.111864 373.318554 
L 383.700773 369.502642 
L 390.289682 365.661551 
L 396.878592 361.795542 
L 403.467501 357.904874 
L 410.05641 353.989815 
L 416.645319 350.05064 
L 423.234228 346.08763 
L 429.823137 342.101179 
L 436.412046 338.091388 
L 443.000955 334.058693 
L 449.589864 330.003444 
L 456.178773 325.808238 
L 462.767682 321.242562 
L 469.356592 316.329096 
L 475.945501 311.097006 
L 482.53441 305.573408 
L 489.123319 299.783164 
L 495.712228 293.748826 
L 502.301137 287.490694 
L 508.890046 281.026935 
L 515.478955 274.373737 
L 522.067864 267.545515 
L 528.656773 260.554938 
L 535.245682 253.413558 
L 541.834592 246.131323 
L 548.423501 238.717155 
L 555.01241 231.178978 
L 561.601319 223.52383 
L 568.190228 215.757973 
L 574.779137 207.886979 
L 581.368046 199.915818 
L 587.956955 191.848921 
L 594.545864 183.690239 
L 601.134773 175.443304 
L 607.723682 167.111263 
L 614.312592 158.696928 
L 620.901501 150.202803 
L 627.49041 141.631114 
L 634.079319 132.983837 
L 640.668228 124.262715 
L 647.257137 115.469281 
L 653.846046 106.604857 
L 660.434955 97.670615 
L 667.023864 88.667525 
L 673.612773 79.596403 
L 680.201682 70.457909 
L 686.790592 61.252552 
L 693.379501 51.980659 
L 699.96841 42.642512 
L 706.557319 33.238139 
" style="fill:none;stroke:#008000;stroke-linecap:square;stroke-width:2;"/>
   </g>
   <g id="line2d_40">
    <path clip-path="url(#p2d88a316f1)" d="M 247.205916 462.360921 
L 247.205916 12.803721 
" style="fill:none;stroke:#000000;stroke-linecap:square;stroke-width:1.5;"/>
   </g>
   <g id="patch_7">
    <path d="M 54.255319 462.360921 
L 54.255319 12.803721 
" style="fill:none;stroke:#000000;stroke-linecap:square;stroke-linejoin:miter;stroke-width:0.8;"/>
   </g>
   <g id="patch_8">
    <path d="M 706.557319 462.360921 
L 706.557319 12.803721 
" style="fill:none;stroke:#000000;stroke-linecap:square;stroke-linejoin:miter;stroke-width:0.8;"/>
   </g>
   <g id="patch_9">
    <path d="M 54.255319 462.360921 
L 706.557319 462.360921 
" style="fill:none;stroke:#000000;stroke-linecap:square;stroke-linejoin:miter;stroke-width:0.8;"/>
   </g>
   <g id="patch_10">
    <path d="M 54.255319 12.803721 
L 706.557319 12.803721 
" style="fill:none;stroke:#000000;stroke-linecap:square;stroke-linejoin:miter;stroke-width:0.8;"/>
   </g>
   <g id="legend_1">
    <g id="patch_11">
     <path d="M 623.046961 456.360921 
L 697.357319 456.360921 
Q 700.557319 456.360921 700.557319 453.160921 
L 700.557319 387.862492 
Q 700.557319 384.662492 697.357319 384.662492 
L 623.046961 384.662492 
Q 619.846961 384.662492 619.846961 387.862492 
L 619.846961 453.160921 
Q 619.846961 456.360921 623.046961 456.360921 
z
" style="fill:#4c4c4c;opacity:0.5;stroke:#4c4c4c;stroke-linejoin:miter;"/>
    </g>
    <g id="patch_12">
     <path d="M 621.046961 454.360921 
L 695.357319 454.360921 
Q 698.557319 454.360921 698.557319 451.160921 
L 698.557319 385.862492 
Q 698.557319 382.662492 695.357319 382.662492 
L 621.046961 382.662492 
Q 617.846961 382.662492 617.846961 385.862492 
L 617.846961 451.160921 
Q 617.846961 454.360921 621.046961 454.360921 
z
" style="fill:#ffffff;stroke:#cccccc;stroke-linejoin:miter;"/>
    </g>
    <g id="line2d_41">
     <path d="M 624.246961 394.662492 
L 656.246961 394.662492 
" style="fill:none;stroke:#ff0000;stroke-linecap:square;stroke-width:2;"/>
    </g>
    <g id="line2d_42"/>
    <g id="text_28">
     <!-- $F_C$ -->
     <g transform="translate(669.046961 400.262492)scale(0.16 -0.16)">
      <use transform="translate(0 14.943915)scale(0.996264)" xlink:href="#CMMI12-70"/>
      <use transform="translate(63.148204 0)scale(0.697382)" xlink:href="#CMMI12-67"/>
     </g>
    </g>
    <g id="line2d_43">
     <path d="M 624.246961 416.961968 
L 656.246961 416.961968 
" style="fill:none;stroke:#0000ff;stroke-linecap:square;stroke-width:2;"/>
    </g>
    <g id="line2d_44"/>
    <g id="text_29">
     <!-- $F_T$ -->
     <g transform="translate(669.046961 422.561968)scale(0.16 -0.16)">
      <use transform="translate(0 14.943915)scale(0.996264)" xlink:href="#CMMI12-70"/>
      <use transform="translate(63.148204 0)scale(0.697382)" xlink:href="#CMMI12-84"/>
     </g>
    </g>
    <g id="line2d_45">
     <path d="M 624.246961 439.261444 
L 656.246961 439.261444 
" style="fill:none;stroke:#008000;stroke-linecap:square;stroke-width:2;"/>
    </g>
    <g id="line2d_46"/>
    <g id="text_30">
     <!-- $\Delta F$ -->
     <g transform="translate(669.046961 444.861444)scale(0.16 -0.16)">
      <use transform="scale(0.996264)" xlink:href="#CMR17-1"/>
      <use transform="translate(76.91959 0)scale(0.996264)" xlink:href="#CMMI12-70"/>
     </g>
    </g>
   </g>
  </g>
 </g>
 <defs>
  <clipPath id="p2d88a316f1">
   <rect height="449.5572" width="652.302" x="54.255319" y="12.803721"/>
  </clipPath>
 </defs>
</svg>
