<?xml version="1.0" encoding="utf-8" standalone="no"?>
<!DOCTYPE svg PUBLIC "-//W3C//DTD SVG 1.1//EN"
  "http://www.w3.org/Graphics/SVG/1.1/DTD/svg11.dtd">
<!-- Created with matplotlib (https://matplotlib.org/) -->
<svg height="528.485773pt" version="1.1" viewBox="0 0 710.458172 528.485773" width="710.458172pt" xmlns="http://www.w3.org/2000/svg" xmlns:xlink="http://www.w3.org/1999/xlink">
 <defs>
  <style type="text/css">
*{stroke-linecap:butt;stroke-linejoin:round;}
  </style>
 </defs>
 <g id="figure_1">
  <g id="patch_1">
   <path d="M 0 528.485773 
L 710.458172 528.485773 
L 710.458172 0 
L 0 0 
z
" style="fill:none;"/>
  </g>
  <g id="axes_1">
   <g id="patch_2">
    <path d="M 58.156172 487.376485 
L 710.458172 487.376485 
L 710.458172 37.819285 
L 58.156172 37.819285 
z
" style="fill:none;"/>
   </g>
   <g id="matplotlib.axis_1">
    <g id="xtick_1">
     <g id="line2d_1">
      <path clip-path="url(#p18f27452b7)" d="M 87.806263 487.376485 
L 87.806263 37.819285 
" style="fill:none;stroke:#b0b0b0;stroke-linecap:square;stroke-width:0.8;"/>
     </g>
     <g id="line2d_2">
      <defs>
       <path d="M 0 0 
L 0 3.5 
" id="m16e444c1ab" style="stroke:#000000;stroke-width:0.8;"/>
      </defs>
      <g>
       <use style="stroke:#000000;stroke-width:0.8;" x="87.806263" xlink:href="#m16e444c1ab" y="487.376485"/>
      </g>
     </g>
     <g id="text_1">
      <!-- $100$ -->
      <defs>
       <path d="M 26.59375 63.796875 
C 26.59375 65.890625 26.5 66 25.09375 66 
C 21.203125 61.359375 15.296875 59.890625 9.703125 59.6875 
C 9.40625 59.6875 8.90625 59.6875 8.796875 59.5 
C 8.703125 59.296875 8.703125 59.09375 8.703125 57 
C 11.796875 57 17 57.59375 21 59.984375 
L 21 7.296875 
C 21 3.796875 20.796875 2.59375 12.203125 2.59375 
L 9.203125 2.59375 
L 9.203125 0 
C 14 0.09375 19 0.1875 23.796875 0.1875 
C 28.59375 0.1875 33.59375 0.09375 38.40625 0 
L 38.40625 2.59375 
L 35.40625 2.59375 
C 26.796875 2.59375 26.59375 3.6875 26.59375 7.296875 
z
" id="CMR17-49"/>
       <path d="M 42 31.84375 
C 42 37.96875 41.90625 48.421875 37.703125 56.453125 
C 34 63.484375 28.09375 66 22.90625 66 
C 18.09375 66 12 63.78125 8.203125 56.5625 
C 4.203125 49.015625 3.796875 39.671875 3.796875 31.84375 
C 3.796875 26.109375 3.90625 17.375 7 9.734375 
C 11.296875 -0.609375 19 -2 22.90625 -2 
C 27.5 -2 34.5 -0.109375 38.59375 9.4375 
C 41.59375 16.375 42 24.5 42 31.84375 
z
M 22.90625 -0.40625 
C 16.5 -0.40625 12.703125 5.125 11.296875 12.75 
C 10.203125 18.6875 10.203125 27.328125 10.203125 32.953125 
C 10.203125 40.6875 10.203125 47.109375 11.5 53.234375 
C 13.40625 61.78125 19 64.390625 22.90625 64.390625 
C 27 64.390625 32.296875 61.671875 34.203125 53.4375 
C 35.5 47.71875 35.59375 40.984375 35.59375 32.953125 
C 35.59375 26.421875 35.59375 18.375 34.40625 12.453125 
C 32.296875 1.5 26.40625 -0.40625 22.90625 -0.40625 
z
" id="CMR17-48"/>
      </defs>
      <g transform="translate(76.100283 505.446073)scale(0.16 -0.16)">
       <use transform="scale(0.996264)" xlink:href="#CMR17-49"/>
       <use transform="translate(45.690477 0)scale(0.996264)" xlink:href="#CMR17-48"/>
       <use transform="translate(91.380954 0)scale(0.996264)" xlink:href="#CMR17-48"/>
      </g>
     </g>
    </g>
    <g id="xtick_2">
     <g id="line2d_3">
      <path clip-path="url(#p18f27452b7)" d="M 186.639899 487.376485 
L 186.639899 37.819285 
" style="fill:none;stroke:#b0b0b0;stroke-linecap:square;stroke-width:0.8;"/>
     </g>
     <g id="line2d_4">
      <g>
       <use style="stroke:#000000;stroke-width:0.8;" x="186.639899" xlink:href="#m16e444c1ab" y="487.376485"/>
      </g>
     </g>
     <g id="text_2">
      <!-- $150$ -->
      <defs>
       <path d="M 11.40625 58.59375 
C 12.40625 58.1875 16.5 56.890625 20.703125 56.890625 
C 30 56.890625 35.09375 61.890625 38 64.6875 
C 38 65.484375 38 66 37.40625 66 
C 37.296875 66 37.09375 66 36.296875 65.59375 
C 32.796875 64.09375 28.703125 63 23.703125 63 
C 20.703125 63 16.203125 63.359375 11.296875 65.484375 
C 10.203125 66 10 66 9.90625 66 
C 9.40625 66 9.296875 65.890625 9.296875 63.90625 
L 9.296875 34.859375 
C 9.296875 33.015625 9.296875 32.5 10.296875 32.5 
C 10.796875 32.5 11 32.703125 11.5 33.421875 
C 14.703125 38.046875 19.09375 40 24.09375 40 
C 27.59375 40 35.09375 37.734375 35.09375 20.203125 
C 35.09375 16.984375 35.09375 11.1875 32.09375 6.59375 
C 29.59375 2.484375 25.703125 0.390625 21.40625 0.390625 
C 14.796875 0.390625 8.09375 4.984375 6.296875 12.6875 
C 6.703125 12.59375 7.5 12.390625 7.90625 12.390625 
C 9.203125 12.390625 11.703125 13.09375 11.703125 16.1875 
C 11.703125 18.890625 9.796875 20 7.90625 20 
C 5.59375 20 4.09375 18.59375 4.09375 15.796875 
C 4.09375 7.09375 11 -2 21.59375 -2 
C 31.90625 -2 41.703125 6.890625 41.703125 19.796875 
C 41.703125 32.09375 33.90625 41.59375 24.203125 41.59375 
C 19.09375 41.59375 14.796875 39.6875 11.40625 36 
z
" id="CMR17-53"/>
      </defs>
      <g transform="translate(174.933919 505.446073)scale(0.16 -0.16)">
       <use transform="scale(0.996264)" xlink:href="#CMR17-49"/>
       <use transform="translate(45.690477 0)scale(0.996264)" xlink:href="#CMR17-53"/>
       <use transform="translate(91.380954 0)scale(0.996264)" xlink:href="#CMR17-48"/>
      </g>
     </g>
    </g>
    <g id="xtick_3">
     <g id="line2d_5">
      <path clip-path="url(#p18f27452b7)" d="M 285.473536 487.376485 
L 285.473536 37.819285 
" style="fill:none;stroke:#b0b0b0;stroke-linecap:square;stroke-width:0.8;"/>
     </g>
     <g id="line2d_6">
      <g>
       <use style="stroke:#000000;stroke-width:0.8;" x="285.473536" xlink:href="#m16e444c1ab" y="487.376485"/>
      </g>
     </g>
     <g id="text_3">
      <!-- $200$ -->
      <defs>
       <path d="M 41.703125 15.46875 
L 39.90625 15.46875 
C 38.90625 8.390625 38.09375 7.1875 37.703125 6.59375 
C 37.203125 5.796875 30 5.796875 28.59375 5.796875 
L 9.40625 5.796875 
C 13 9.6875 20 16.765625 28.5 24.9375 
C 34.59375 30.71875 41.703125 37.5 41.703125 47.390625 
C 41.703125 59.1875 32.296875 66 21.796875 66 
C 10.796875 66 4.09375 56.296875 4.09375 47.296875 
C 4.09375 43.390625 7 42.890625 8.203125 42.890625 
C 9.203125 42.890625 12.203125 43.484375 12.203125 46.984375 
C 12.203125 50.09375 9.59375 51 8.203125 51 
C 7.59375 51 7 50.890625 6.59375 50.6875 
C 8.5 59.1875 14.296875 63.390625 20.40625 63.390625 
C 29.09375 63.390625 34.796875 56.5 34.796875 47.390625 
C 34.796875 38.703125 29.703125 31.21875 24 24.734375 
L 4.09375 2.296875 
L 4.09375 0 
L 39.296875 0 
z
" id="CMR17-50"/>
      </defs>
      <g transform="translate(273.767555 505.446073)scale(0.16 -0.16)">
       <use transform="scale(0.996264)" xlink:href="#CMR17-50"/>
       <use transform="translate(45.690477 0)scale(0.996264)" xlink:href="#CMR17-48"/>
       <use transform="translate(91.380954 0)scale(0.996264)" xlink:href="#CMR17-48"/>
      </g>
     </g>
    </g>
    <g id="xtick_4">
     <g id="line2d_7">
      <path clip-path="url(#p18f27452b7)" d="M 384.307172 487.376485 
L 384.307172 37.819285 
" style="fill:none;stroke:#b0b0b0;stroke-linecap:square;stroke-width:0.8;"/>
     </g>
     <g id="line2d_8">
      <g>
       <use style="stroke:#000000;stroke-width:0.8;" x="384.307172" xlink:href="#m16e444c1ab" y="487.376485"/>
      </g>
     </g>
     <g id="text_4">
      <!-- $250$ -->
      <g transform="translate(372.601192 505.446073)scale(0.16 -0.16)">
       <use transform="scale(0.996264)" xlink:href="#CMR17-50"/>
       <use transform="translate(45.690477 0)scale(0.996264)" xlink:href="#CMR17-53"/>
       <use transform="translate(91.380954 0)scale(0.996264)" xlink:href="#CMR17-48"/>
      </g>
     </g>
    </g>
    <g id="xtick_5">
     <g id="line2d_9">
      <path clip-path="url(#p18f27452b7)" d="M 483.140809 487.376485 
L 483.140809 37.819285 
" style="fill:none;stroke:#b0b0b0;stroke-linecap:square;stroke-width:0.8;"/>
     </g>
     <g id="line2d_10">
      <g>
       <use style="stroke:#000000;stroke-width:0.8;" x="483.140809" xlink:href="#m16e444c1ab" y="487.376485"/>
      </g>
     </g>
     <g id="text_5">
      <!-- $300$ -->
      <defs>
       <path d="M 22.09375 34 
C 31 34 34.90625 26.140625 34.90625 17.09375 
C 34.90625 5.03125 28.5 0.390625 22.703125 0.390625 
C 17.40625 0.390625 8.796875 3.015625 6.09375 10.796875 
C 6.59375 10.59375 7.09375 10.59375 7.59375 10.59375 
C 10 10.59375 11.796875 12.1875 11.796875 14.796875 
C 11.796875 17.6875 9.59375 19 7.59375 19 
C 5.90625 19 3.296875 18.1875 3.296875 14.484375 
C 3.296875 5.234375 12.296875 -2 22.90625 -2 
C 34 -2 42.5 6.75 42.5 16.984375 
C 42.5 26.84375 34.5 34 25 35.09375 
C 32.59375 36.671875 39.90625 43.375 39.90625 52.390625 
C 39.90625 60.25 32 66 23 66 
C 13.90625 66 5.90625 60.34375 5.90625 52.296875 
C 5.90625 48.796875 8.5 48.1875 9.796875 48.1875 
C 11.90625 48.1875 13.703125 49.484375 13.703125 52.09375 
C 13.703125 54.6875 11.90625 56 9.796875 56 
C 9.40625 56 8.90625 56 8.5 55.796875 
C 11.40625 62.484375 19.296875 63.6875 22.796875 63.6875 
C 26.296875 63.6875 32.90625 61.96875 32.90625 52.296875 
C 32.90625 49.484375 32.5 44.546875 29.09375 40.21875 
C 26.09375 36.390625 22.703125 36.1875 19.40625 35.890625 
C 18.90625 35.890625 16.59375 35.6875 16.203125 35.6875 
C 15.5 35.59375 15.09375 35.5 15.09375 34.796875 
C 15.09375 34.09375 15.203125 34 17.203125 34 
z
" id="CMR17-51"/>
      </defs>
      <g transform="translate(471.434828 505.446073)scale(0.16 -0.16)">
       <use transform="scale(0.996264)" xlink:href="#CMR17-51"/>
       <use transform="translate(45.690477 0)scale(0.996264)" xlink:href="#CMR17-48"/>
       <use transform="translate(91.380954 0)scale(0.996264)" xlink:href="#CMR17-48"/>
      </g>
     </g>
    </g>
    <g id="xtick_6">
     <g id="line2d_11">
      <path clip-path="url(#p18f27452b7)" d="M 581.974445 487.376485 
L 581.974445 37.819285 
" style="fill:none;stroke:#b0b0b0;stroke-linecap:square;stroke-width:0.8;"/>
     </g>
     <g id="line2d_12">
      <g>
       <use style="stroke:#000000;stroke-width:0.8;" x="581.974445" xlink:href="#m16e444c1ab" y="487.376485"/>
      </g>
     </g>
     <g id="text_6">
      <!-- $350$ -->
      <g transform="translate(570.268464 505.446073)scale(0.16 -0.16)">
       <use transform="scale(0.996264)" xlink:href="#CMR17-51"/>
       <use transform="translate(45.690477 0)scale(0.996264)" xlink:href="#CMR17-53"/>
       <use transform="translate(91.380954 0)scale(0.996264)" xlink:href="#CMR17-48"/>
      </g>
     </g>
    </g>
    <g id="xtick_7">
     <g id="line2d_13">
      <path clip-path="url(#p18f27452b7)" d="M 680.808081 487.376485 
L 680.808081 37.819285 
" style="fill:none;stroke:#b0b0b0;stroke-linecap:square;stroke-width:0.8;"/>
     </g>
     <g id="line2d_14">
      <g>
       <use style="stroke:#000000;stroke-width:0.8;" x="680.808081" xlink:href="#m16e444c1ab" y="487.376485"/>
      </g>
     </g>
     <g id="text_7">
      <!-- $400$ -->
      <defs>
       <path d="M 33.59375 64.796875 
C 33.59375 66.890625 33.5 67 31.703125 67 
L 2 19.59375 
L 2 17 
L 27.796875 17 
L 27.796875 7.1875 
C 27.796875 3.59375 27.59375 2.59375 20.59375 2.59375 
L 18.703125 2.59375 
L 18.703125 0 
C 21.90625 0.1875 27.296875 0.1875 30.703125 0.1875 
C 34.09375 0.1875 39.5 0.1875 42.703125 0 
L 42.703125 2.59375 
L 40.796875 2.59375 
C 33.796875 2.59375 33.59375 3.59375 33.59375 7.1875 
L 33.59375 17 
L 43.796875 17 
L 43.796875 19.59375 
L 33.59375 19.59375 
z
M 28.09375 58.171875 
L 28.09375 19.59375 
L 4 19.59375 
z
" id="CMR17-52"/>
      </defs>
      <g transform="translate(669.102101 505.446073)scale(0.16 -0.16)">
       <use transform="scale(0.996264)" xlink:href="#CMR17-52"/>
       <use transform="translate(45.690477 0)scale(0.996264)" xlink:href="#CMR17-48"/>
       <use transform="translate(91.380954 0)scale(0.996264)" xlink:href="#CMR17-48"/>
      </g>
     </g>
    </g>
    <g id="text_8">
     <!-- $Cutting\ speed\ V\ (m/min)$ -->
     <defs>
      <path d="M 74.703125 69.09375 
C 74.703125 70 74 70 73.796875 70 
C 73.59375 70 73.203125 70 72.40625 68.984375 
L 65.5 60.640625 
C 62 66.59375 56.5 70 49 70 
C 27.40625 70 5 48.234375 5 24.90625 
C 5 8.328125 16.703125 -2 31.296875 -2 
C 39.296875 -2 46.296875 1.390625 52.09375 6.25 
C 60.796875 13.5 63.40625 23.125 63.40625 23.921875 
C 63.40625 24.8125 62.59375 24.8125 62.296875 24.8125 
C 61.40625 24.8125 61.296875 24.21875 61.09375 23.8125 
C 56.5 8.328125 43 0.890625 33 0.890625 
C 22.40625 0.890625 13.203125 7.640625 13.203125 21.734375 
C 13.203125 24.90625 14.203125 42.171875 25.5 55.171875 
C 31 61.53125 40.40625 67.09375 49.90625 67.09375 
C 60.90625 67.09375 65.796875 58.0625 65.796875 47.9375 
C 65.796875 45.359375 65.5 43.171875 65.5 42.765625 
C 65.5 41.875 66.5 41.875 66.796875 41.875 
C 67.90625 41.875 68 41.984375 68.40625 43.765625 
z
" id="CMMI12-67"/>
      <path d="M 34.09375 5.78125 
C 35.40625 0.1875 40.203125 -1 42.59375 -1 
C 45.796875 -1 48.203125 1.09375 49.796875 4.484375 
C 51.5 8.078125 52.796875 13.953125 52.796875 14.265625 
C 52.796875 14.75 52.40625 15.15625 51.796875 15.15625 
C 50.90625 15.15625 50.796875 14.65625 50.40625 13.15625 
C 48.59375 6.28125 46.796875 1 42.796875 1 
C 39.796875 1 39.796875 4.28125 39.796875 5.578125 
C 39.796875 7.875 40.09375 8.875 41.09375 13.0625 
C 41.796875 15.75 42.5 18.453125 43.09375 21.234375 
L 47.203125 37.5 
C 47.90625 40 47.90625 40.1875 47.90625 40.484375 
C 47.90625 41.984375 46.703125 43 45.203125 43 
C 42.296875 43 41.59375 40.484375 41 38 
C 40 34.109375 34.59375 12.65625 33.90625 9.171875 
C 33.796875 9.171875 29.90625 1 22.59375 1 
C 17.40625 1 16.40625 5.484375 16.40625 9.171875 
C 16.40625 14.859375 19.203125 22.84375 21.796875 29.53125 
C 23 32.71875 23.5 34.015625 23.5 36.015625 
C 23.5 40.296875 20.40625 44 15.59375 44 
C 6.40625 44 2.703125 29.53125 2.703125 28.71875 
C 2.703125 28.328125 3.09375 27.828125 3.796875 27.828125 
C 4.703125 27.828125 4.796875 28.234375 5.203125 29.625 
C 7.59375 38.203125 11.5 41.984375 15.296875 41.984375 
C 16.296875 41.984375 17.90625 41.890625 17.90625 38.703125 
C 17.90625 36.109375 16.796875 33.21875 15.296875 29.421875 
C 10.90625 17.546875 10.40625 13.765625 10.40625 10.765625 
C 10.40625 0.59375 18.09375 -1 22.203125 -1 
C 28.59375 -1 32.09375 3.390625 34.09375 5.78125 
z
" id="CMMI12-117"/>
      <path d="M 20.09375 40.09375 
L 29.296875 40.09375 
C 31.203125 40.09375 32.203125 40.09375 32.203125 41.890625 
C 32.203125 43 31.59375 43 29.59375 43 
L 20.796875 43 
L 24.5 57.25 
C 24.90625 58.625 24.90625 58.8125 24.90625 59.5 
C 24.90625 61.09375 23.59375 62 22.296875 62 
C 21.5 62 19.203125 61.6875 18.40625 58.53125 
L 14.5 43 
L 5.09375 43 
C 3.09375 43 2.203125 43 2.203125 41.09375 
C 2.203125 40.09375 2.90625 40.09375 4.796875 40.09375 
L 13.703125 40.09375 
L 7.09375 13.765625 
C 6.296875 10.265625 6 9.265625 6 7.96875 
C 6 3.28125 9.296875 -1 14.90625 -1 
C 25 -1 30.40625 13.5625 30.40625 14.265625 
C 30.40625 14.859375 30 15.15625 29.40625 15.15625 
C 29.203125 15.15625 28.796875 15.15625 28.59375 14.75 
C 28.5 14.65625 28.40625 14.5625 27.703125 12.96875 
C 25.59375 7.96875 21 1 15.203125 1 
C 12.203125 1 12 3.484375 12 5.6875 
C 12 5.78125 12 7.671875 12.296875 8.875 
z
" id="CMMI12-116"/>
      <path d="M 28.296875 14.265625 
C 28.296875 14.765625 27.90625 15.15625 27.296875 15.15625 
C 26.40625 15.15625 26.296875 14.859375 25.796875 13.15625 
C 23.203125 4.078125 19.09375 1 15.796875 1 
C 14.59375 1 13.203125 1.296875 13.203125 4.28125 
C 13.203125 6.984375 14.40625 9.96875 15.5 12.96875 
L 22.5 31.515625 
C 22.796875 32.3125 23.5 34.109375 23.5 36.015625 
C 23.5 40.203125 20.5 44 15.59375 44 
C 6.40625 44 2.703125 29.53125 2.703125 28.71875 
C 2.703125 28.328125 3.09375 27.828125 3.796875 27.828125 
C 4.703125 27.828125 4.796875 28.234375 5.203125 29.625 
C 7.59375 38 11.40625 41.984375 15.296875 41.984375 
C 16.203125 41.984375 17.90625 41.890625 17.90625 38.703125 
C 17.90625 36.109375 16.59375 32.8125 15.796875 30.625 
L 8.796875 12.0625 
C 8.203125 10.46875 7.59375 8.875 7.59375 7.078125 
C 7.59375 2.59375 10.703125 -1 15.5 -1 
C 24.703125 -1 28.296875 13.5625 28.296875 14.265625 
z
M 27.5 62.6875 
C 27.5 64.1875 26.296875 66 24.09375 66 
C 21.796875 66 19.203125 63.796875 19.203125 61.1875 
C 19.203125 58.6875 21.296875 57.890625 22.5 57.890625 
C 25.203125 57.890625 27.5 60.484375 27.5 62.6875 
z
" id="CMMI12-105"/>
      <path d="M 20.59375 29.21875 
C 20.796875 29.828125 23.296875 34.8125 27 38 
C 29.59375 40.390625 33 41.984375 36.90625 41.984375 
C 40.90625 41.984375 42.296875 39 42.296875 35.015625 
C 42.296875 29.328125 38.203125 17.953125 36.203125 12.5625 
C 35.296875 10.171875 34.796875 8.875 34.796875 7.078125 
C 34.796875 2.59375 37.90625 -1 42.703125 -1 
C 52 -1 55.5 13.65625 55.5 14.265625 
C 55.5 14.765625 55.09375 15.15625 54.5 15.15625 
C 53.59375 15.15625 53.5 14.859375 53 13.15625 
C 50.703125 4.984375 46.90625 1 43 1 
C 42 1 40.40625 1.09375 40.40625 4.28125 
C 40.40625 6.78125 41.5 9.765625 42.09375 11.171875 
C 44.09375 16.65625 48.296875 27.828125 48.296875 33.515625 
C 48.296875 39.5 44.796875 44 37.203125 44 
C 28.296875 44 23.59375 37.703125 21.796875 35.203125 
C 21.5 40.890625 17.40625 44 13 44 
C 9.796875 44 7.59375 42.09375 5.90625 38.703125 
C 4.09375 35.109375 2.703125 29.125 2.703125 28.71875 
C 2.703125 28.328125 3.09375 27.828125 3.796875 27.828125 
C 4.59375 27.828125 4.703125 27.921875 5.296875 30.21875 
C 6.90625 36.3125 8.703125 41.984375 12.703125 41.984375 
C 15 41.984375 15.796875 40.390625 15.796875 37.40625 
C 15.796875 35.203125 14.796875 31.3125 14.09375 28.234375 
L 11.296875 17.453125 
C 10.90625 15.5625 9.796875 11.0625 9.296875 9.265625 
C 8.59375 6.671875 7.5 1.984375 7.5 1.484375 
C 7.5 0.09375 8.59375 -1 10.09375 -1 
C 11.296875 -1 12.703125 -0.40625 13.5 1.09375 
C 13.703125 1.59375 14.59375 5.078125 15.09375 7.078125 
L 17.296875 16.0625 
z
" id="CMMI12-110"/>
      <path d="M 33.796875 12.671875 
C 33.40625 11.0625 33.203125 10.671875 31.90625 9.171875 
C 27.796875 3.890625 23.59375 2 20.5 2 
C 17.203125 2 14.09375 4.578125 14.09375 11.46875 
C 14.09375 16.75 17.09375 27.921875 19.296875 32.421875 
C 22.203125 38 26.703125 41.984375 30.90625 41.984375 
C 37.5 41.984375 38.796875 33.8125 38.796875 33.21875 
L 38.5 31.8125 
z
M 40 37.40625 
C 38.703125 40.296875 35.90625 44 30.90625 44 
C 20 44 7.59375 30.328125 7.59375 15.453125 
C 7.59375 5.078125 13.90625 0 20.296875 0 
C 25.59375 0 30.296875 4.1875 32.09375 6.1875 
L 29.90625 -2.75 
C 28.5 -8.125 27.90625 -10.578125 24.296875 -14 
C 20.203125 -18 16.40625 -18 14.203125 -18 
C 11.203125 -18 8.703125 -17.8125 6.203125 -17.03125 
C 9.40625 -16.15625 10.203125 -13.40625 10.203125 -12.328125 
C 10.203125 -10.765625 9 -9.203125 6.796875 -9.203125 
C 4.40625 -9.203125 1.796875 -11.15625 1.796875 -14.390625 
C 1.796875 -18.40625 5.90625 -20 14.40625 -20 
C 27.296875 -20 34 -11.84375 35.296875 -6.5625 
L 46.40625 37.90625 
C 46.703125 39.09375 46.703125 39.296875 46.703125 39.5 
C 46.703125 40.890625 45.59375 42 44.09375 42 
C 41.703125 42 40.296875 40 40 37.3125 
z
" id="CMMI12-103"/>
      <path d="M 22.796875 20.15625 
C 24.5 19.859375 27.203125 19.265625 27.796875 19.171875 
C 29.09375 18.765625 33.59375 17.171875 33.59375 12.390625 
C 33.59375 9.296875 30.796875 1 19.203125 1 
C 17.09375 1 9.59375 1.296875 7.59375 6.984375 
C 11.59375 6.46875 13.59375 9.59375 13.59375 11.796875 
C 13.59375 13.890625 12.203125 15 10.203125 15 
C 8 15 5.09375 13.296875 5.09375 8.796875 
C 5.09375 2.75 11.09375 -1 19.09375 -1 
C 34.296875 -1 38.796875 10.390625 38.796875 15.59375 
C 38.796875 17.078125 38.796875 19.859375 35.59375 23.046875 
C 33.09375 25.421875 30.703125 25.921875 25.296875 27.015625 
C 22.59375 27.609375 18.296875 28.5 18.296875 32.984375 
C 18.296875 34.984375 20.09375 41.984375 29.59375 41.984375 
C 33.796875 41.984375 37.90625 40.453125 38.90625 37 
C 34.5 37 34.296875 33.1875 34.296875 33.09375 
C 34.296875 30.984375 36.203125 30.390625 37.09375 30.390625 
C 38.5 30.390625 41.296875 31.484375 41.296875 35.6875 
C 41.296875 39.78125 37.5 44 29.703125 44 
C 16.59375 44 13.09375 33.890625 13.09375 29.796875 
C 13.09375 22.25 20.5 20.65625 22.796875 20.15625 
z
" id="CMMI12-115"/>
      <path d="M 4.296875 -12.40625 
C 3.59375 -15.328125 3.203125 -16.109375 -0.90625 -16.109375 
C -2.109375 -16.109375 -3.109375 -16.109375 -3.109375 -18 
C -3.109375 -18.203125 -3 -19 -1.90625 -19 
C -0.609375 -19 0.796875 -18.8125 2.09375 -18.8125 
L 6.40625 -18.8125 
C 8.5 -18.8125 13.59375 -19 15.703125 -19 
C 16.296875 -19 17.5 -19 17.5 -17.203125 
C 17.5 -16.109375 16.796875 -16.109375 15.09375 -16.109375 
C 10.5 -16.109375 10.203125 -15.421875 10.203125 -14.640625 
C 10.203125 -13.484375 14.703125 3.390625 15.296875 5.6875 
C 16.40625 2.890625 19.09375 -1 24.296875 -1 
C 35.59375 -1 47.796875 13.65625 47.796875 28.328125 
C 47.796875 37.5 42.59375 44 35.09375 44 
C 28.703125 44 23.296875 37.796875 22.203125 36.40625 
C 21.40625 41.390625 17.5 44 13.5 44 
C 10.59375 44 8.296875 42.59375 6.40625 38.796875 
C 4.59375 35.203125 3.203125 29.125 3.203125 28.71875 
C 3.203125 28.328125 3.59375 27.828125 4.296875 27.828125 
C 5.09375 27.828125 5.203125 27.921875 5.796875 30.21875 
C 7.296875 36.109375 9.203125 41.984375 13.203125 41.984375 
C 15.5 41.984375 16.296875 40.390625 16.296875 37.40625 
C 16.296875 35.015625 16 34.015625 15.59375 32.21875 
z
M 21.59375 31.125 
C 22.296875 33.90625 25.09375 36.8125 26.703125 38.203125 
C 27.796875 39.203125 31.09375 41.984375 34.90625 41.984375 
C 39.296875 41.984375 41.296875 37.609375 41.296875 32.421875 
C 41.296875 27.625 38.5 16.359375 36 11.171875 
C 33.5 5.78125 28.90625 1 24.296875 1 
C 17.5 1 16.40625 9.578125 16.40625 9.96875 
C 16.40625 10.265625 16.59375 11.0625 16.703125 11.5625 
z
" id="CMMI12-112"/>
      <path d="M 17.90625 23 
C 20.59375 23 27.40625 23.1875 32.203125 25 
C 39.796875 27.90625 40.5 33.75 40.5 35.546875 
C 40.5 39.984375 36.703125 44 30.09375 44 
C 19.59375 44 4.5 34.453125 4.5 16.65625 
C 4.5 6.25 10.5 -1 19.59375 -1 
C 33.203125 -1 41.796875 9.515625 41.796875 10.796875 
C 41.796875 11.390625 41.203125 11.890625 40.796875 11.890625 
C 40.5 11.890625 40.40625 11.796875 39.5 10.90625 
C 33.09375 2.484375 23.59375 1 19.796875 1 
C 14.09375 1 11.09375 5.453125 11.09375 12.78125 
C 11.09375 14.171875 11.09375 16.65625 12.59375 23 
z
M 13.09375 25 
C 17.40625 40.484375 26.90625 41.984375 30.09375 41.984375 
C 34.5 41.984375 37.5 39.375 37.5 35.546875 
C 37.5 25 21.5 25 17.296875 25 
z
" id="CMMI12-101"/>
      <path d="M 50.296875 66.484375 
C 50.40625 66.890625 50.59375 67.484375 50.59375 67.984375 
C 50.59375 69 49.59375 69 49.40625 69 
C 49.296875 69 44.40625 68.59375 43.90625 68.484375 
C 42.203125 68.390625 40.703125 68.1875 38.90625 68.09375 
C 36.40625 67.890625 35.703125 67.796875 35.703125 65.984375 
C 35.703125 64.984375 36.5 64.984375 37.90625 64.984375 
C 42.796875 64.984375 42.90625 64.109375 42.90625 63.125 
C 42.90625 62.53125 42.703125 61.734375 42.59375 61.4375 
L 36.5 37.40625 
C 35.40625 40 32.703125 44 27.5 44 
C 16.203125 44 4 29.421875 4 14.65625 
C 4 4.78125 9.796875 -1 16.59375 -1 
C 22.09375 -1 26.796875 3.28125 29.59375 6.578125 
C 30.59375 0.6875 35.296875 -1 38.296875 -1 
C 41.296875 -1 43.703125 0.796875 45.5 4.390625 
C 47.09375 7.78125 48.5 13.859375 48.5 14.265625 
C 48.5 14.765625 48.09375 15.15625 47.5 15.15625 
C 46.59375 15.15625 46.5 14.65625 46.09375 13.15625 
C 44.59375 7.28125 42.703125 1 38.59375 1 
C 35.703125 1 35.5 3.59375 35.5 5.578125 
C 35.5 5.984375 35.5 8.078125 36.203125 10.875 
z
M 30.09375 11.859375 
C 29.59375 10.171875 29.59375 9.96875 28.203125 8.078125 
C 26 5.28125 21.59375 1 16.90625 1 
C 12.796875 1 10.5 4.6875 10.5 10.5625 
C 10.5 16.0625 13.59375 27.234375 15.5 31.421875 
C 18.90625 38.40625 23.59375 41.984375 27.5 41.984375 
C 34.09375 41.984375 35.40625 33.8125 35.40625 33.015625 
C 35.40625 32.921875 35.09375 31.625 35 31.421875 
z
" id="CMMI12-100"/>
      <path d="M 61.90625 56.9375 
C 65.296875 62.296875 68.40625 64.6875 73.5 65.09375 
C 74.5 65.1875 75.296875 65.1875 75.296875 66.984375 
C 75.296875 67.390625 75.09375 68 74.203125 68 
C 72.40625 68 68.09375 67.796875 66.296875 67.796875 
C 63.40625 67.796875 60.40625 68 57.59375 68 
C 56.796875 68 55.796875 68 55.796875 66.09375 
C 55.796875 65.1875 56.703125 65.09375 57.09375 65.09375 
C 60.796875 64.78125 61.203125 63 61.203125 61.8125 
C 61.203125 60.3125 59.796875 58.03125 59.703125 57.9375 
L 28.296875 8.4375 
L 21.296875 62 
C 21.296875 64.890625 26.5 65.09375 27.59375 65.09375 
C 29.09375 65.09375 30 65.09375 30 66.984375 
C 30 68 28.90625 68 28.59375 68 
C 26.90625 68 24.90625 67.796875 23.203125 67.796875 
L 17.59375 67.796875 
C 10.296875 67.796875 7.296875 68 7.203125 68 
C 6.59375 68 5.40625 68 5.40625 66.1875 
C 5.40625 65.09375 6.09375 65.09375 7.703125 65.09375 
C 12.796875 65.09375 13.09375 64.1875 13.40625 61.703125 
L 21.40625 0.390625 
C 21.703125 -1.703125 21.703125 -2 23.09375 -2 
C 24.296875 -2 24.796875 -1.703125 25.796875 -0.109375 
z
" id="CMMI12-86"/>
      <path d="M 30.59375 -24.40625 
C 30.59375 -24.3125 30.59375 -24.109375 30.296875 -23.8125 
C 25.703125 -19.109375 13.40625 -6.296875 13.40625 24.9375 
C 13.40625 56.171875 25.5 68.875 30.40625 73.890625 
C 30.40625 73.984375 30.59375 74.1875 30.59375 74.484375 
C 30.59375 74.796875 30.296875 75 29.90625 75 
C 28.796875 75 20.296875 67.578125 15.40625 56.5625 
C 10.40625 45.453125 9 34.65625 9 25.046875 
C 9 17.828125 9.703125 5.625 15.703125 -7.296875 
C 20.5 -17.703125 28.703125 -25 29.90625 -25 
C 30.40625 -25 30.59375 -24.8125 30.59375 -24.40625 
z
" id="CMR17-40"/>
      <path d="M 20.59375 29.21875 
C 20.796875 29.828125 23.296875 34.8125 27 38 
C 29.59375 40.390625 33 41.984375 36.90625 41.984375 
C 40.90625 41.984375 42.296875 39 42.296875 35.015625 
C 42.296875 34.40625 42.296875 32.421875 41.09375 27.734375 
L 38.59375 17.453125 
C 37.796875 14.453125 35.90625 7.078125 35.703125 5.984375 
C 35.296875 4.484375 34.703125 1.890625 34.703125 1.484375 
C 34.703125 0.09375 35.796875 -1 37.296875 -1 
C 40.296875 -1 40.796875 1.296875 41.703125 4.890625 
L 47.703125 28.71875 
C 47.90625 29.53125 53.09375 41.984375 64.09375 41.984375 
C 68.09375 41.984375 69.5 39 69.5 35.015625 
C 69.5 29.421875 65.59375 18.546875 63.40625 12.5625 
C 62.5 10.171875 62 8.875 62 7.078125 
C 62 2.59375 65.09375 -1 69.90625 -1 
C 79.203125 -1 82.703125 13.65625 82.703125 14.265625 
C 82.703125 14.765625 82.296875 15.15625 81.703125 15.15625 
C 80.796875 15.15625 80.703125 14.859375 80.203125 13.15625 
C 77.90625 5.1875 74.203125 1 70.203125 1 
C 69.203125 1 67.59375 1.09375 67.59375 4.28125 
C 67.59375 6.875 68.796875 10.078125 69.203125 11.171875 
C 71 15.953125 75.5 27.734375 75.5 33.515625 
C 75.5 39.5 72 44 64.40625 44 
C 57.703125 44 52.296875 40.203125 48.296875 34.3125 
C 48 39.703125 44.703125 44 37.203125 44 
C 28.296875 44 23.59375 37.703125 21.796875 35.203125 
C 21.5 40.890625 17.40625 44 13 44 
C 10.09375 44 7.796875 42.59375 5.90625 38.796875 
C 4.09375 35.203125 2.703125 29.125 2.703125 28.71875 
C 2.703125 28.328125 3.09375 27.828125 3.796875 27.828125 
C 4.59375 27.828125 4.703125 27.921875 5.296875 30.21875 
C 6.796875 36.109375 8.703125 41.984375 12.703125 41.984375 
C 15 41.984375 15.796875 40.390625 15.796875 37.40625 
C 15.796875 35.203125 14.796875 31.3125 14.09375 28.234375 
L 11.296875 17.453125 
C 10.90625 15.5625 9.796875 11.0625 9.296875 9.265625 
C 8.59375 6.671875 7.5 1.984375 7.5 1.484375 
C 7.5 0.09375 8.59375 -1 10.09375 -1 
C 11.296875 -1 12.703125 -0.40625 13.5 1.09375 
C 13.703125 1.59375 14.59375 5.078125 15.09375 7.078125 
L 17.296875 16.0625 
z
" id="CMMI12-109"/>
      <path d="M 42.90625 71.296875 
C 42.90625 71.390625 43.5 72.890625 43.5 73.09375 
C 43.5 74.296875 42.5 75 41.703125 75 
C 41.203125 75 40.296875 75 39.5 72.796875 
L 6 -21.3125 
C 6 -21.40625 5.40625 -22.90625 5.40625 -23.109375 
C 5.40625 -24.3125 6.40625 -25 7.203125 -25 
C 7.796875 -25 8.703125 -24.90625 9.40625 -22.8125 
z
" id="CMMI12-61"/>
      <path d="M 26.296875 24.9375 
C 26.296875 32.140625 25.59375 44.359375 19.59375 57.265625 
C 14.796875 67.6875 6.59375 75 5.40625 75 
C 5.09375 75 4.703125 74.890625 4.703125 74.390625 
C 4.703125 74.1875 4.796875 74.09375 4.90625 73.890625 
C 9.703125 68.875 21.90625 56.171875 21.90625 25.046875 
C 21.90625 -6.1875 9.796875 -18.90625 4.90625 -23.90625 
C 4.796875 -24.109375 4.703125 -24.203125 4.703125 -24.40625 
C 4.703125 -24.90625 5.09375 -25 5.40625 -25 
C 6.5 -25 15 -17.609375 19.90625 -6.59375 
C 24.90625 4.515625 26.296875 15.328125 26.296875 24.9375 
z
" id="CMR17-41"/>
     </defs>
     <g transform="translate(292.815655 524.500717)scale(0.16 -0.16)">
      <use transform="scale(0.996264)" xlink:href="#CMMI12-67"/>
      <use transform="translate(76.946847 0)scale(0.996264)" xlink:href="#CMMI12-117"/>
      <use transform="translate(132.467176 0)scale(0.996264)" xlink:href="#CMMI12-116"/>
      <use transform="translate(167.693507 0)scale(0.996264)" xlink:href="#CMMI12-116"/>
      <use transform="translate(202.919837 0)scale(0.996264)" xlink:href="#CMMI12-105"/>
      <use transform="translate(236.198439 0)scale(0.996264)" xlink:href="#CMMI12-110"/>
      <use transform="translate(294.428486 0)scale(0.996264)" xlink:href="#CMMI12-103"/>
      <use transform="translate(375.943088 0)scale(0.996264)" xlink:href="#CMMI12-115"/>
      <use transform="translate(421.893136 0)scale(0.996264)" xlink:href="#CMMI12-112"/>
      <use transform="translate(470.85265 0)scale(0.996264)" xlink:href="#CMMI12-101"/>
      <use transform="translate(516.064651 0)scale(0.996264)" xlink:href="#CMMI12-101"/>
      <use transform="translate(561.276652 0)scale(0.996264)" xlink:href="#CMMI12-100"/>
      <use transform="translate(643.194861 0)scale(0.996264)" xlink:href="#CMMI12-86"/>
      <use transform="translate(752.971295 0)scale(0.996264)" xlink:href="#CMR17-40"/>
      <use transform="translate(788.252063 0)scale(0.996264)" xlink:href="#CMMI12-109"/>
      <use transform="translate(873.579287 0)scale(0.996264)" xlink:href="#CMMI12-61"/>
      <use transform="translate(922.354206 0)scale(0.996264)" xlink:href="#CMMI12-109"/>
      <use transform="translate(1007.68143 0)scale(0.996264)" xlink:href="#CMMI12-105"/>
      <use transform="translate(1040.960032 0)scale(0.996264)" xlink:href="#CMMI12-110"/>
      <use transform="translate(1099.190079 0)scale(0.996264)" xlink:href="#CMR17-41"/>
     </g>
    </g>
   </g>
   <g id="matplotlib.axis_2">
    <g id="ytick_1">
     <g id="line2d_15">
      <path clip-path="url(#p18f27452b7)" d="M 58.156172 435.269758 
L 710.458172 435.269758 
" style="fill:none;stroke:#b0b0b0;stroke-linecap:square;stroke-width:0.8;"/>
     </g>
     <g id="line2d_16">
      <defs>
       <path d="M 0 0 
L -3.5 0 
" id="ma0d0dc0bf0" style="stroke:#000000;stroke-width:0.8;"/>
      </defs>
      <g>
       <use style="stroke:#000000;stroke-width:0.8;" x="58.156172" xlink:href="#ma0d0dc0bf0" y="435.269758"/>
      </g>
     </g>
     <g id="text_9">
      <!-- $700$ -->
      <defs>
       <path d="M 45.09375 61.796875 
L 45.09375 64 
L 21.59375 64 
C 9.90625 64 9.703125 65.09375 9.296875 67 
L 7.5 67 
L 4.59375 48.5 
L 6.40625 48.5 
C 6.703125 50.40625 7.40625 55.5 8.59375 57.390625 
C 9.203125 58.1875 16.59375 58.1875 18.296875 58.1875 
L 40.296875 58.1875 
L 29.203125 41.71875 
C 21.796875 30.640625 16.703125 15.671875 16.703125 2.59375 
C 16.703125 1.390625 16.703125 -2 20.296875 -2 
C 23.90625 -2 23.90625 1.390625 23.90625 2.6875 
L 23.90625 7.28125 
C 23.90625 23.65625 26.703125 34.4375 31.296875 41.3125 
z
" id="CMR17-55"/>
      </defs>
      <g transform="translate(27.744211 440.804552)scale(0.16 -0.16)">
       <use transform="scale(0.996264)" xlink:href="#CMR17-55"/>
       <use transform="translate(45.690477 0)scale(0.996264)" xlink:href="#CMR17-48"/>
       <use transform="translate(91.380954 0)scale(0.996264)" xlink:href="#CMR17-48"/>
      </g>
     </g>
    </g>
    <g id="ytick_2">
     <g id="line2d_17">
      <path clip-path="url(#p18f27452b7)" d="M 58.156172 378.816306 
L 710.458172 378.816306 
" style="fill:none;stroke:#b0b0b0;stroke-linecap:square;stroke-width:0.8;"/>
     </g>
     <g id="line2d_18">
      <g>
       <use style="stroke:#000000;stroke-width:0.8;" x="58.156172" xlink:href="#ma0d0dc0bf0" y="378.816306"/>
      </g>
     </g>
     <g id="text_10">
      <!-- $800$ -->
      <defs>
       <path d="M 27.203125 35.765625 
C 33.5 38.96875 39.90625 43.796875 39.90625 51.53125 
C 39.90625 60.6875 31.09375 66 23 66 
C 13.90625 66 5.90625 59.375 5.90625 50.234375 
C 5.90625 47.71875 6.5 43.390625 10.40625 39.578125 
C 11.40625 38.578125 15.59375 35.5625 18.296875 33.65625 
C 13.796875 31.34375 3.296875 25.8125 3.296875 14.765625 
C 3.296875 4.40625 13.09375 -2 22.796875 -2 
C 33.5 -2 42.5 5.71875 42.5 15.96875 
C 42.5 25.109375 36.40625 29.328125 32.40625 32.046875 
z
M 14.09375 44.609375 
C 13.296875 45.109375 9.296875 48.21875 9.296875 52.9375 
C 9.296875 59.078125 15.59375 63.6875 22.796875 63.6875 
C 30.703125 63.6875 36.5 58.0625 36.5 51.53125 
C 36.5 42.1875 26.09375 36.859375 25.59375 36.859375 
C 25.5 36.859375 25.40625 36.859375 24.59375 37.46875 
z
M 32.5 24 
C 34 22.90625 38.796875 19.578125 38.796875 13.453125 
C 38.796875 6.015625 31.40625 0.390625 23 0.390625 
C 13.90625 0.390625 7 6.921875 7 14.859375 
C 7 22.796875 13.09375 29.4375 20 32.546875 
z
" id="CMR17-56"/>
      </defs>
      <g transform="translate(27.744211 384.3511)scale(0.16 -0.16)">
       <use transform="scale(0.996264)" xlink:href="#CMR17-56"/>
       <use transform="translate(45.690477 0)scale(0.996264)" xlink:href="#CMR17-48"/>
       <use transform="translate(91.380954 0)scale(0.996264)" xlink:href="#CMR17-48"/>
      </g>
     </g>
    </g>
    <g id="ytick_3">
     <g id="line2d_19">
      <path clip-path="url(#p18f27452b7)" d="M 58.156172 322.362854 
L 710.458172 322.362854 
" style="fill:none;stroke:#b0b0b0;stroke-linecap:square;stroke-width:0.8;"/>
     </g>
     <g id="line2d_20">
      <g>
       <use style="stroke:#000000;stroke-width:0.8;" x="58.156172" xlink:href="#ma0d0dc0bf0" y="322.362854"/>
      </g>
     </g>
     <g id="text_11">
      <!-- $900$ -->
      <defs>
       <path d="M 35.203125 29.234375 
C 35.203125 7 26.09375 0.390625 18.59375 0.390625 
C 16.296875 0.390625 10.703125 0.671875 8.40625 4.390625 
C 11 4 12.90625 5.390625 12.90625 7.890625 
C 12.90625 10.59375 10.703125 11.5 9.296875 11.5 
C 8.40625 11.5 5.703125 11.09375 5.703125 7.6875 
C 5.703125 1.0625 11.59375 -2 18.796875 -2 
C 30.296875 -2 42 10.390625 42 32.65625 
C 42 60.265625 30.796875 66 23.203125 66 
C 13.296875 66 3.796875 57.25 3.796875 43.75 
C 3.796875 31.25 11.90625 22 22.09375 22 
C 30.5 22 34.203125 29.84375 35.203125 33.15625 
z
M 22.296875 23.59375 
C 19.59375 23.59375 15.796875 24.09375 12.703125 30.140625 
C 10.59375 34.078125 10.59375 38.703125 10.59375 43.640625 
C 10.59375 49.59375 10.59375 53.71875 13.40625 58.15625 
C 14.796875 60.265625 17.40625 63.6875 23.203125 63.6875 
C 35 63.6875 35 45.453125 35 41.421875 
C 35 34.265625 31.796875 23.59375 22.296875 23.59375 
z
" id="CMR17-57"/>
      </defs>
      <g transform="translate(27.744211 327.897648)scale(0.16 -0.16)">
       <use transform="scale(0.996264)" xlink:href="#CMR17-57"/>
       <use transform="translate(45.690477 0)scale(0.996264)" xlink:href="#CMR17-48"/>
       <use transform="translate(91.380954 0)scale(0.996264)" xlink:href="#CMR17-48"/>
      </g>
     </g>
    </g>
    <g id="ytick_4">
     <g id="line2d_21">
      <path clip-path="url(#p18f27452b7)" d="M 58.156172 265.909401 
L 710.458172 265.909401 
" style="fill:none;stroke:#b0b0b0;stroke-linecap:square;stroke-width:0.8;"/>
     </g>
     <g id="line2d_22">
      <g>
       <use style="stroke:#000000;stroke-width:0.8;" x="58.156172" xlink:href="#ma0d0dc0bf0" y="265.909401"/>
      </g>
     </g>
     <g id="text_12">
      <!-- $1000$ -->
      <g transform="translate(19.940224 271.444195)scale(0.16 -0.16)">
       <use transform="scale(0.996264)" xlink:href="#CMR17-49"/>
       <use transform="translate(45.690477 0)scale(0.996264)" xlink:href="#CMR17-48"/>
       <use transform="translate(91.380954 0)scale(0.996264)" xlink:href="#CMR17-48"/>
       <use transform="translate(137.071431 0)scale(0.996264)" xlink:href="#CMR17-48"/>
      </g>
     </g>
    </g>
    <g id="ytick_5">
     <g id="line2d_23">
      <path clip-path="url(#p18f27452b7)" d="M 58.156172 209.455949 
L 710.458172 209.455949 
" style="fill:none;stroke:#b0b0b0;stroke-linecap:square;stroke-width:0.8;"/>
     </g>
     <g id="line2d_24">
      <g>
       <use style="stroke:#000000;stroke-width:0.8;" x="58.156172" xlink:href="#ma0d0dc0bf0" y="209.455949"/>
      </g>
     </g>
     <g id="text_13">
      <!-- $1100$ -->
      <g transform="translate(19.940224 214.990743)scale(0.16 -0.16)">
       <use transform="scale(0.996264)" xlink:href="#CMR17-49"/>
       <use transform="translate(45.690477 0)scale(0.996264)" xlink:href="#CMR17-49"/>
       <use transform="translate(91.380954 0)scale(0.996264)" xlink:href="#CMR17-48"/>
       <use transform="translate(137.071431 0)scale(0.996264)" xlink:href="#CMR17-48"/>
      </g>
     </g>
    </g>
    <g id="ytick_6">
     <g id="line2d_25">
      <path clip-path="url(#p18f27452b7)" d="M 58.156172 153.002497 
L 710.458172 153.002497 
" style="fill:none;stroke:#b0b0b0;stroke-linecap:square;stroke-width:0.8;"/>
     </g>
     <g id="line2d_26">
      <g>
       <use style="stroke:#000000;stroke-width:0.8;" x="58.156172" xlink:href="#ma0d0dc0bf0" y="153.002497"/>
      </g>
     </g>
     <g id="text_14">
      <!-- $1200$ -->
      <g transform="translate(19.940224 158.537291)scale(0.16 -0.16)">
       <use transform="scale(0.996264)" xlink:href="#CMR17-49"/>
       <use transform="translate(45.690477 0)scale(0.996264)" xlink:href="#CMR17-50"/>
       <use transform="translate(91.380954 0)scale(0.996264)" xlink:href="#CMR17-48"/>
       <use transform="translate(137.071431 0)scale(0.996264)" xlink:href="#CMR17-48"/>
      </g>
     </g>
    </g>
    <g id="ytick_7">
     <g id="line2d_27">
      <path clip-path="url(#p18f27452b7)" d="M 58.156172 96.549044 
L 710.458172 96.549044 
" style="fill:none;stroke:#b0b0b0;stroke-linecap:square;stroke-width:0.8;"/>
     </g>
     <g id="line2d_28">
      <g>
       <use style="stroke:#000000;stroke-width:0.8;" x="58.156172" xlink:href="#ma0d0dc0bf0" y="96.549044"/>
      </g>
     </g>
     <g id="text_15">
      <!-- $1300$ -->
      <g transform="translate(19.940224 102.083838)scale(0.16 -0.16)">
       <use transform="scale(0.996264)" xlink:href="#CMR17-49"/>
       <use transform="translate(45.690477 0)scale(0.996264)" xlink:href="#CMR17-51"/>
       <use transform="translate(91.380954 0)scale(0.996264)" xlink:href="#CMR17-48"/>
       <use transform="translate(137.071431 0)scale(0.996264)" xlink:href="#CMR17-48"/>
      </g>
     </g>
    </g>
    <g id="ytick_8">
     <g id="line2d_29">
      <path clip-path="url(#p18f27452b7)" d="M 58.156172 40.095592 
L 710.458172 40.095592 
" style="fill:none;stroke:#b0b0b0;stroke-linecap:square;stroke-width:0.8;"/>
     </g>
     <g id="line2d_30">
      <g>
       <use style="stroke:#000000;stroke-width:0.8;" x="58.156172" xlink:href="#ma0d0dc0bf0" y="40.095592"/>
      </g>
     </g>
     <g id="text_16">
      <!-- $1400$ -->
      <g transform="translate(19.940224 45.630386)scale(0.16 -0.16)">
       <use transform="scale(0.996264)" xlink:href="#CMR17-49"/>
       <use transform="translate(45.690477 0)scale(0.996264)" xlink:href="#CMR17-52"/>
       <use transform="translate(91.380954 0)scale(0.996264)" xlink:href="#CMR17-48"/>
       <use transform="translate(137.071431 0)scale(0.996264)" xlink:href="#CMR17-48"/>
      </g>
     </g>
    </g>
    <g id="text_17">
     <!-- $Temperature\ T_{int}\ (^{\circ}C)$ -->
     <defs>
      <path d="M 41.703125 60.71875 
C 42.296875 63.09375 42.5 64 44 64.390625 
C 44.796875 64.59375 48.09375 64.59375 50.203125 64.59375 
C 60.203125 64.59375 64.90625 64.203125 64.90625 56.4375 
C 64.90625 54.9375 64.5 51.15625 63.90625 47.46875 
L 63.796875 46.28125 
C 63.796875 45.890625 64.203125 45.28125 64.796875 45.28125 
C 65.796875 45.28125 65.796875 45.78125 66.09375 47.375 
L 69 64.984375 
C 69.203125 65.890625 69.203125 66.09375 69.203125 66.390625 
C 69.203125 67.484375 68.59375 67.484375 66.59375 67.484375 
L 11.90625 67.484375 
C 9.59375 67.484375 9.5 67.390625 8.90625 65.59375 
L 2.796875 47.671875 
C 2.703125 47.46875 2.40625 46.375 2.40625 46.28125 
C 2.40625 45.78125 2.796875 45.28125 3.40625 45.28125 
C 4.203125 45.28125 4.40625 45.6875 4.796875 46.984375 
C 9 59.015625 11.09375 64.59375 24.40625 64.59375 
L 31.09375 64.59375 
C 33.5 64.59375 34.5 64.59375 34.5 63.5 
C 34.5 63.203125 34.5 63 34 61.203125 
L 20.59375 7.765625 
C 19.59375 3.890625 19.40625 2.890625 8.796875 2.890625 
C 6.296875 2.890625 5.59375 2.890625 5.59375 1 
C 5.59375 0 6.703125 0 7.203125 0 
C 9.703125 0 12.296875 0.1875 14.796875 0.1875 
L 30.40625 0.1875 
C 32.90625 0.1875 35.59375 0 38.09375 0 
C 39.203125 0 40.203125 0 40.203125 1.890625 
C 40.203125 2.890625 39.5 2.890625 36.90625 2.890625 
C 27.90625 2.890625 27.90625 3.78125 27.90625 5.28125 
C 27.90625 5.375 27.90625 6.078125 28.296875 7.671875 
z
" id="CMMI12-84"/>
      <path d="M 38.90625 41.140625 
C 35.796875 40.59375 34.203125 38.390625 34.203125 36.1875 
C 34.203125 33.796875 36.09375 32.984375 37.5 32.984375 
C 40.296875 32.984375 42.59375 35.390625 42.59375 38.390625 
C 42.59375 41.421875 39.5 44 34.5 44 
C 30.5 44 25.90625 42.1875 21.703125 36.484375 
C 21 41.5625 17 44 13 44 
C 9.09375 44 7.09375 41.28125 5.90625 39.1875 
C 4.203125 35.59375 2.703125 29.5625 2.703125 29.0625 
C 2.703125 28.65625 3.09375 28.140625 3.796875 28.140625 
C 4.59375 28.140625 4.703125 28.25 5.296875 30.578125 
C 6.796875 36.59375 8.703125 41.984375 12.703125 41.984375 
C 15.09375 41.984375 15.796875 40.6875 15.796875 37.796875 
C 15.796875 35.59375 14.796875 31.6875 14.09375 28.546875 
L 11.296875 17.65625 
C 10.90625 15.734375 9.796875 11.1875 9.296875 9.375 
C 8.59375 6.75 7.5 2 7.5 1.5 
C 7.5 0.09375 8.59375 -1 10.09375 -1 
C 11.203125 -1 13.09375 -0.3125 13.703125 1.703125 
C 14 2.5 17.703125 17.75 18.296875 20.078125 
C 18.796875 22.296875 19.40625 24.40625 19.90625 26.640625 
C 20.296875 28.046875 20.703125 29.65625 21 30.96875 
C 21.296875 31.875 24 36.796875 26.5 38.984375 
C 27.703125 40.09375 30.296875 41.984375 34.40625 41.984375 
C 36 41.984375 37.59375 41.78125 38.90625 41.140625 
z
" id="CMMI12-114"/>
      <path d="M 30.09375 11.859375 
C 29.59375 10.171875 29.59375 9.96875 28.203125 8.078125 
C 26 5.28125 21.59375 1 16.90625 1 
C 12.796875 1 10.5 4.6875 10.5 10.5625 
C 10.5 16.0625 13.59375 27.234375 15.5 31.421875 
C 18.90625 38.40625 23.59375 41.984375 27.5 41.984375 
C 34.09375 41.984375 35.40625 33.8125 35.40625 33.015625 
C 35.40625 32.921875 35.09375 31.625 35 31.421875 
z
M 36.5 37.40625 
C 35.40625 40 32.703125 44 27.5 44 
C 16.203125 44 4 29.421875 4 14.65625 
C 4 4.78125 9.796875 -1 16.59375 -1 
C 22.09375 -1 26.796875 3.28125 29.59375 6.578125 
C 30.59375 0.6875 35.296875 -1 38.296875 -1 
C 41.296875 -1 43.703125 0.796875 45.5 4.375 
C 47.09375 7.75 48.5 13.828125 48.5 14.21875 
C 48.5 14.71875 48.09375 15.125 47.5 15.125 
C 46.59375 15.125 46.5 14.625 46.09375 13.125 
C 44.59375 7.265625 42.703125 1 38.59375 1 
C 35.703125 1 35.5 3.578125 35.5 5.5625 
C 35.5 7.859375 35.796875 8.953125 36.703125 12.828125 
C 37.40625 15.3125 37.90625 17.5 38.703125 20.390625 
C 42.40625 35.3125 43.296875 38.890625 43.296875 39.5 
C 43.296875 40.890625 42.203125 42 40.703125 42 
C 37.5 42 36.703125 38.5 36.5 37.3125 
z
" id="CMMI12-97"/>
      <path d="M 44.40625 24.984375 
C 44.40625 35.40625 35.5 44 25 44 
C 14.203125 44 5.5 35.21875 5.5 24.984375 
C 5.5 14.671875 14.203125 5.984375 25 5.984375 
C 35.5 5.984375 44.40625 14.5625 44.40625 24.984375 
z
M 25 10 
C 16.296875 10 9.5 16.8125 9.5 24.984375 
C 9.5 33.171875 16.40625 40 25 40 
C 33.296875 40 40.40625 33.375 40.40625 24.984375 
C 40.40625 16.609375 33.296875 10 25 10 
z
" id="CMSY10-14"/>
     </defs>
     <g transform="translate(12.840748 341.248555)rotate(-90)scale(0.16 -0.16)">
      <use transform="translate(0 14.943915)scale(0.996264)" xlink:href="#CMMI12-84"/>
      <use transform="translate(70.723632 14.943915)scale(0.996264)" xlink:href="#CMMI12-101"/>
      <use transform="translate(115.935633 14.943915)scale(0.996264)" xlink:href="#CMMI12-109"/>
      <use transform="translate(201.262858 14.943915)scale(0.996264)" xlink:href="#CMMI12-112"/>
      <use transform="translate(250.222372 14.943915)scale(0.996264)" xlink:href="#CMMI12-101"/>
      <use transform="translate(295.434373 14.943915)scale(0.996264)" xlink:href="#CMMI12-114"/>
      <use transform="translate(342.104985 14.943915)scale(0.996264)" xlink:href="#CMMI12-97"/>
      <use transform="translate(393.312842 14.943915)scale(0.996264)" xlink:href="#CMMI12-116"/>
      <use transform="translate(428.539173 14.943915)scale(0.996264)" xlink:href="#CMMI12-117"/>
      <use transform="translate(484.059502 14.943915)scale(0.996264)" xlink:href="#CMMI12-114"/>
      <use transform="translate(530.730114 14.943915)scale(0.996264)" xlink:href="#CMMI12-101"/>
      <use transform="translate(607.171228 14.943915)scale(0.996264)" xlink:href="#CMMI12-84"/>
      <use transform="translate(664.346272 0)scale(0.697382)" xlink:href="#CMMI12-105"/>
      <use transform="translate(687.641179 0)scale(0.697382)" xlink:href="#CMMI12-110"/>
      <use transform="translate(728.402022 0)scale(0.697382)" xlink:href="#CMMI12-116"/>
      <use transform="translate(784.787576 14.943915)scale(0.996264)" xlink:href="#CMR17-40"/>
      <use transform="translate(820.068344 51.097553)scale(0.697382)" xlink:href="#CMSY10-14"/>
      <use transform="translate(855.435686 14.943915)scale(0.996264)" xlink:href="#CMMI12-67"/>
      <use transform="translate(932.382533 14.943915)scale(0.996264)" xlink:href="#CMR17-41"/>
     </g>
    </g>
   </g>
   <g id="line2d_31">
    <path clip-path="url(#p18f27452b7)" d="M 87.806263 466.942067 
L 112.514672 446.979928 
L 137.223081 424.18073 
L 161.93149 400.241556 
L 186.639899 376.72131 
L 211.348309 354.297354 
L 236.056718 332.449172 
L 260.765127 311.460413 
L 285.473536 291.501358 
L 310.181945 272.677557 
L 334.890354 254.98763 
L 359.598763 238.470184 
L 384.307172 223.086153 
L 409.015581 208.791743 
L 433.72399 195.523584 
L 458.432399 183.248926 
L 483.140809 171.8814 
L 507.849218 161.352509 
L 532.557627 151.615598 
L 557.266036 142.611892 
L 581.974445 134.265704 
L 606.682854 126.531687 
L 631.391263 119.374061 
L 656.099672 112.741306 
L 680.808081 106.600056 
" style="fill:none;stroke:#1f77b4;stroke-linecap:square;stroke-width:2;"/>
   </g>
   <g id="line2d_32">
    <path clip-path="url(#p18f27452b7)" d="M 87.806263 409.56609 
L 112.514672 378.082406 
L 137.223081 348.375616 
L 161.93149 319.828504 
L 186.639899 292.988892 
L 211.348309 268.112382 
L 236.056718 245.28427 
L 260.765127 224.475353 
L 285.473536 205.594581 
L 310.181945 188.514192 
L 334.890354 173.08984 
L 359.598763 159.174515 
L 384.307172 146.610971 
L 409.015581 135.294128 
L 433.72399 125.071297 
L 458.432399 115.822494 
L 483.140809 107.49186 
L 507.849218 99.889718 
L 532.557627 93.021963 
L 557.266036 86.778328 
L 581.974445 81.077094 
L 606.682854 76.744904 
L 631.391263 73.00453 
L 656.099672 69.536064 
L 680.808081 66.314818 
" style="fill:none;stroke:#ff7f0e;stroke-linecap:square;stroke-width:2;"/>
   </g>
   <g id="line2d_33">
    <path clip-path="url(#p18f27452b7)" d="M 87.806263 349.50042 
L 112.514672 314.104294 
L 137.223081 281.454236 
L 161.93149 251.92069 
L 186.639899 225.562231 
L 211.348309 202.194529 
L 236.056718 181.579045 
L 260.765127 163.434831 
L 285.473536 147.477408 
L 310.181945 133.439287 
L 334.890354 121.076422 
L 359.598763 110.161506 
L 384.307172 100.537213 
L 409.015581 92.004692 
L 433.72399 84.413457 
L 458.432399 78.14953 
L 483.140809 73.406788 
L 507.849218 69.090589 
L 532.557627 65.153154 
L 557.266036 61.552862 
L 581.974445 58.253703 
" style="fill:none;stroke:#2ca02c;stroke-linecap:square;stroke-width:2;"/>
   </g>
   <g id="line2d_34">
    <path clip-path="url(#p18f27452b7)" d="M 87.806263 295.122569 
L 112.514672 258.514463 
L 137.223081 226.456113 
L 161.93149 198.686851 
L 186.639899 174.824144 
L 211.348309 154.33155 
L 236.056718 136.771621 
L 260.765127 121.686056 
L 285.473536 108.686193 
L 310.181945 97.515696 
L 334.890354 87.811424 
L 359.598763 79.50688 
L 384.307172 73.738269 
L 409.015581 68.585979 
L 433.72399 63.968192 
L 458.432399 59.815995 
" style="fill:none;stroke:#d62728;stroke-linecap:square;stroke-width:2;"/>
   </g>
   <g id="line2d_35">
    <path clip-path="url(#p18f27452b7)" d="M 87.806263 208.866698 
L 112.514672 176.071076 
L 137.223081 149.304169 
L 161.93149 127.467314 
L 186.639899 109.595335 
L 211.348309 94.924279 
L 236.056718 82.777479 
L 260.765127 74.266636 
L 285.473536 67.477967 
L 310.181945 61.601998 
" style="fill:none;stroke:#9467bd;stroke-linecap:square;stroke-width:2;"/>
   </g>
   <g id="line2d_36">
    <path clip-path="url(#p18f27452b7)" d="M 87.806263 150.179382 
L 112.514672 123.399343 
L 137.223081 102.573321 
L 161.93149 86.177253 
L 186.639899 74.681069 
L 211.348309 66.304382 
L 236.056718 59.297185 
" style="fill:none;stroke:#8c564b;stroke-linecap:square;stroke-width:2;"/>
   </g>
   <g id="patch_3">
    <path d="M 58.156172 487.376485 
L 58.156172 37.819285 
" style="fill:none;stroke:#000000;stroke-linecap:square;stroke-linejoin:miter;stroke-width:0.8;"/>
   </g>
   <g id="patch_4">
    <path d="M 710.458172 487.376485 
L 710.458172 37.819285 
" style="fill:none;stroke:#000000;stroke-linecap:square;stroke-linejoin:miter;stroke-width:0.8;"/>
   </g>
   <g id="patch_5">
    <path d="M 58.156172 487.376485 
L 710.458172 487.376485 
" style="fill:none;stroke:#000000;stroke-linecap:square;stroke-linejoin:miter;stroke-width:0.8;"/>
   </g>
   <g id="patch_6">
    <path d="M 58.156172 37.819285 
L 710.458172 37.819285 
" style="fill:none;stroke:#000000;stroke-linecap:square;stroke-linejoin:miter;stroke-width:0.8;"/>
   </g>
   <g id="text_18">
    <!-- Temperature $T_{int}$ v.s. cutting speed $V$ -->
    <defs>
     <path d="M 36.203125 62.296875 
L 44.5 62.296875 
C 45.703125 62.296875 46.90625 62.1875 48.09375 62.1875 
L 60.59375 62.1875 
L 60.59375 68.6875 
L 3.40625 68.6875 
L 3.40625 62.1875 
L 15.90625 62.1875 
C 17.09375 62.1875 18.296875 62.296875 19.5 62.296875 
L 27.796875 62.296875 
L 27.796875 0 
L 36.203125 0 
z
" id="CMSS17-84"/>
     <path d="M 39.09375 21.484375 
C 39.09375 24.796875 38.90625 31.265625 35.703125 36.671875 
C 32.203125 42.390625 26.5 44 22.203125 44 
C 11.796875 44 3 34.125 3 21.296875 
C 3 9.046875 12.09375 -1 23.59375 -1 
C 28.09375 -1 33.59375 0.296875 38.59375 3.890625 
C 38.59375 4.296875 38.40625 6.46875 38.296875 6.578125 
C 38.296875 6.765625 38 9.828125 38 10.234375 
C 33.203125 6.375 27.703125 5.09375 23.703125 5.09375 
C 17.296875 5.09375 10.40625 10.421875 10.09375 21.484375 
z
M 10.90625 27 
C 12.203125 32.59375 16.59375 37.890625 22.203125 37.890625 
C 23.703125 37.890625 30.703125 37.6875 32.5 27 
z
" id="CMSS17-101"/>
     <path d="M 67 29.34375 
C 67 36.078125 65.296875 44 54.09375 44 
C 46.59375 44 42.09375 39.296875 40.09375 36.375 
C 38.296875 41.6875 34.09375 44 28.09375 44 
C 21.296875 44 17 40.09375 14.703125 37.28125 
L 14.703125 43.484375 
L 7.40625 43.484375 
L 7.40625 0 
L 15 0 
L 15 24.3125 
C 15 30.25 17.203125 37.890625 24.296875 37.890625 
C 33.40625 37.890625 33.40625 31.453125 33.40625 28.53125 
L 33.40625 0 
L 41 0 
L 41 24.3125 
C 41 30.25 43.203125 37.890625 50.296875 37.890625 
C 59.40625 37.890625 59.40625 31.453125 59.40625 28.53125 
L 59.40625 0 
L 67 0 
z
" id="CMSS17-109"/>
     <path d="M 15.09375 4.296875 
C 18.40625 1.09375 22.90625 -1 27.703125 -1 
C 37 -1 45 8.640625 45 21.59375 
C 45 33.546875 39 44 30.40625 44 
C 25.40625 44 19.40625 42.1875 14.90625 38.59375 
L 14.90625 43.1875 
L 7.5 43.1875 
L 7.5 -20 
L 15.09375 -20 
z
M 15.09375 32.625 
C 15.90625 33.84375 19.296875 37.6875 24.796875 37.6875 
C 31.796875 37.6875 37.40625 30.40625 37.40625 21.59375 
C 37.40625 11.578125 30.59375 5.09375 23.90625 5.09375 
C 21.90625 5.09375 19.796875 5.59375 17.796875 7.3125 
C 15.09375 9.75 15.09375 11.265625 15.09375 12.6875 
z
" id="CMSS17-112"/>
     <path d="M 14.90625 21.390625 
C 14.90625 30.84375 21.796875 37.171875 30.59375 37.375 
L 30.59375 44 
C 24.203125 43.890625 18.203125 40.6875 14.59375 35.46875 
L 14.59375 43.484375 
L 7.5 43.484375 
L 7.5 0 
L 14.90625 0 
z
" id="CMSS17-114"/>
     <path d="M 37.59375 27.953125 
C 37.59375 37.484375 30.90625 44 21.90625 44 
C 17.5 44 12.703125 43.1875 7.203125 39.984375 
L 7.796875 33.328125 
C 10.296875 35.15625 14.59375 38.09375 21.796875 38.09375 
C 26.90625 38.09375 30 34.140625 30 27.84375 
L 30 24 
C 14 23.5 4 18.890625 4 11.109375 
C 4 7.0625 6.5 -1 14.796875 -1 
C 16.296875 -1 24.40625 -0.8125 30.203125 3.5 
L 30.203125 -0.203125 
L 37.59375 -0.203125 
z
M 30 12.875 
C 30 11.109375 30 8.734375 27 6.96875 
C 24.40625 5.296875 21.09375 5.09375 19.703125 5.09375 
C 14.703125 5.09375 11.296875 7.859375 11.296875 11.296875 
C 11.296875 18.203125 26.90625 18.890625 30 19 
z
" id="CMSS17-97"/>
     <path d="M 16.703125 37.1875 
L 29.703125 37.1875 
L 29.703125 43 
L 16.703125 43 
L 16.703125 55 
L 9.59375 55 
L 9.59375 43 
L 1.703125 43 
L 1.703125 37.1875 
L 9.40625 37.1875 
L 9.40625 11.734375 
C 9.40625 6 10.703125 -1 17.296875 -1 
C 22.296875 -1 26.90625 0.390625 31.296875 2.6875 
L 29.703125 8.609375 
C 27.296875 6.5 24.40625 5.296875 21.296875 5.296875 
C 16.90625 5.296875 16.703125 10.921875 16.703125 13.4375 
z
" id="CMSS17-116"/>
     <path d="M 40.90625 43 
L 33.296875 43 
L 33.296875 15.25 
C 33.296875 7.8125 27.90625 4.796875 22.203125 4.796875 
C 15.59375 4.796875 15 7 15 11.125 
L 15 43 
L 7.40625 43 
L 7.40625 10.625 
C 7.40625 2.796875 10.09375 -1 17 -1 
C 20.40625 -1 28.09375 -0.203125 33.5 4.796875 
L 33.5 -0.203125 
L 40.90625 -0.203125 
z
" id="CMSS17-117"/>
     <path d="M 41.796875 43 
L 34 43 
L 27.296875 24.296875 
C 25.203125 18.1875 22.203125 9.796875 21.703125 5.5 
L 21.59375 5.5 
C 21.40625 7.296875 20.59375 9.890625 20.09375 11.6875 
C 19.5 13.890625 18.703125 16.5 18.09375 18.296875 
L 9.296875 43 
L 1.296875 43 
L 17.09375 0 
L 26 0 
z
" id="CMSS17-118"/>
     <path d="M 17 8 
L 9 8 
L 9 0 
L 17 0 
z
" id="CMSS17-46"/>
     <path d="M 32.203125 40.984375 
C 26.296875 43.796875 21.703125 44 18.703125 44 
C 11.59375 44 3.09375 41.484375 3.09375 31.390625 
C 3.09375 21.296875 14.09375 19.09375 17.09375 18.484375 
C 21.703125 17.59375 26.796875 16.59375 26.796875 11.59375 
C 26.796875 5.296875 19.59375 5.296875 18.296875 5.296875 
C 14.296875 5.296875 8.796875 6.390625 3.796875 9.984375 
L 2.59375 3.296875 
C 8.296875 0 13.796875 -1 18.40625 -1 
C 30.703125 -1 33.796875 6.5 33.796875 12.1875 
C 33.796875 17.09375 31 20.390625 29.09375 21.890625 
C 25.796875 24.484375 24.59375 24.796875 16.40625 26.484375 
C 15 26.6875 10.09375 27.796875 10.09375 32.296875 
C 10.09375 37.984375 16.40625 37.984375 17.796875 37.984375 
C 24.296875 37.984375 28.296875 35.984375 31 34.484375 
z
" id="CMSS17-115"/>
     <path d="M 38.5 39.6875 
C 38.5 40.390625 33.90625 42.390625 32.703125 42.796875 
C 29.40625 44 25.203125 44 24.09375 44 
C 11.09375 44 3.296875 32.6875 3.296875 21.296875 
C 3.296875 9.296875 12 -1 23.703125 -1 
C 30.40625 -1 35.203125 1.1875 39.09375 3.796875 
L 38.5 10.390625 
C 34.203125 7.09375 29.203125 5.296875 23.796875 5.296875 
C 16 5.296875 10.90625 12.09375 10.90625 21.390625 
C 10.90625 28.59375 14.203125 37.6875 24.203125 37.6875 
C 29.703125 37.6875 32.796875 36.59375 37.40625 33.484375 
z
" id="CMSS17-99"/>
     <path d="M 15.296875 66 
L 6.90625 66 
L 6.90625 57.59375 
L 15.296875 57.59375 
z
M 14.796875 43 
L 7.40625 43 
L 7.40625 0 
L 14.796875 0 
z
" id="CMSS17-105"/>
     <path d="M 40.90625 29.34375 
C 40.90625 35.671875 39.40625 44 28.09375 44 
C 21.703125 44 17.5 40.6875 14.703125 37.28125 
L 14.703125 43.484375 
L 7.40625 43.484375 
L 7.40625 0 
L 15 0 
L 15 24.3125 
C 15 30.65625 17.40625 37.890625 24.203125 37.890625 
C 33 37.890625 33.296875 31.953125 33.296875 28.53125 
L 33.296875 0 
L 40.90625 0 
z
" id="CMSS17-110"/>
     <path d="M 44.5 44 
C 38.796875 43.890625 33.90625 42.796875 29.90625 40.890625 
C 26.59375 43.484375 23.203125 44 20.90625 44 
C 12.203125 44 5.59375 36.8125 5.59375 28.5 
C 5.59375 23.140625 8.59375 19.09375 8.796875 18.890625 
C 7 16.390625 6 13.6875 6 10.6875 
C 6 7.1875 7.40625 4.6875 8.5 3.296875 
C 3.296875 0.09375 2.59375 -4.8125 2.59375 -6.703125 
C 2.59375 -14 11.703125 -20 23.40625 -20 
C 35.203125 -20 44.296875 -14 44.296875 -6.609375 
C 44.296875 7.1875 29 7.296875 24.796875 7.296875 
L 16.703125 7.296875 
C 15.203125 7.296875 11.203125 7.296875 11.203125 12.390625 
C 11.203125 14.390625 12.09375 15.6875 12.203125 15.796875 
C 13.703125 14.6875 16.796875 13 20.90625 13 
C 29.203125 13 36.09375 19.984375 36.09375 28.5 
C 36.09375 33.25 33.90625 36.703125 33 37.890625 
L 33.296875 37.890625 
C 33.59375 37.890625 37.796875 38.1875 39.296875 38.1875 
C 42.5 38.1875 42.796875 38.09375 45.59375 37.796875 
z
M 20.90625 18.5 
C 17.5 18.5 12.703125 20.578125 12.703125 28.5 
C 12.703125 37.109375 18.203125 38.484375 20.796875 38.484375 
C 24.203125 38.484375 29 36.40625 29 28.5 
C 29 19.875 23.5 18.5 20.90625 18.5 
z
M 24.703125 0 
C 27.09375 0 37.203125 0 37.203125 -6.8125 
C 37.203125 -11.109375 31 -14.5 23.5 -14.5 
C 15.90625 -14.5 9.703125 -11.203125 9.703125 -6.703125 
C 9.703125 -6.203125 9.703125 0 16.59375 0 
z
" id="CMSS17-103"/>
     <path d="M 40.796875 69 
L 33.40625 69 
L 33.40625 38.984375 
C 30.296875 41.59375 25.203125 44 19.59375 44 
C 10.5 44 3.296875 34.046875 3.296875 21.484375 
C 3.296875 8.9375 10.40625 -1 19.296875 -1 
C 26.203125 -1 30.796875 2.6875 33.203125 4.796875 
L 33.203125 -0.203125 
L 40.796875 -0.203125 
z
M 33.203125 13.296875 
C 33.203125 11.875 33.203125 10.359375 30.09375 7.625 
C 28.09375 5.90625 25.703125 5.09375 23.40625 5.09375 
C 18 5.09375 10.90625 9.140625 10.90625 21.390625 
C 10.90625 34.140625 18.90625 37.890625 24.40625 37.890625 
C 28.09375 37.890625 31.09375 36.0625 33.203125 33.03125 
z
" id="CMSS17-100"/>
    </defs>
    <g transform="translate(235.062268 13.836997)scale(0.2 -0.2)">
     <use transform="translate(0 14.943915)scale(0.996264)" xlink:href="#CMSS17-84"/>
     <use transform="translate(56.012199 14.943915)scale(0.996264)" xlink:href="#CMSS17-101"/>
     <use transform="translate(97.651021 14.943915)scale(0.996264)" xlink:href="#CMSS17-109"/>
     <use transform="translate(171.880275 14.943915)scale(0.996264)" xlink:href="#CMSS17-112"/>
     <use transform="translate(222.687657 14.943915)scale(0.996264)" xlink:href="#CMSS17-101"/>
     <use transform="translate(264.326479 14.943915)scale(0.996264)" xlink:href="#CMSS17-114"/>
     <use transform="translate(296.236252 14.943915)scale(0.996264)" xlink:href="#CMSS17-97"/>
     <use transform="translate(341.158172 14.943915)scale(0.996264)" xlink:href="#CMSS17-116"/>
     <use transform="translate(374.989739 14.943915)scale(0.996264)" xlink:href="#CMSS17-117"/>
     <use transform="translate(423.194682 14.943915)scale(0.996264)" xlink:href="#CMSS17-114"/>
     <use transform="translate(455.104454 14.943915)scale(0.996264)" xlink:href="#CMSS17-101"/>
     <use transform="translate(527.972389 14.943915)scale(0.996264)" xlink:href="#CMMI12-84"/>
     <use transform="translate(585.147433 0)scale(0.697382)" xlink:href="#CMMI12-105"/>
     <use transform="translate(608.44234 0)scale(0.697382)" xlink:href="#CMMI12-110"/>
     <use transform="translate(649.203183 0)scale(0.697382)" xlink:href="#CMMI12-116"/>
     <use transform="translate(705.588738 14.943915)scale(0.996264)" xlink:href="#CMSS17-118"/>
     <use transform="translate(748.588879 14.943915)scale(0.996264)" xlink:href="#CMSS17-46"/>
     <use transform="translate(774.613084 14.943915)scale(0.996264)" xlink:href="#CMSS17-115"/>
     <use transform="translate(810.526626 14.943915)scale(0.996264)" xlink:href="#CMSS17-46"/>
     <use transform="translate(878.189638 14.943915)scale(0.996264)" xlink:href="#CMSS17-99"/>
     <use transform="translate(919.82846 14.943915)scale(0.996264)" xlink:href="#CMSS17-117"/>
     <use transform="translate(968.033403 14.943915)scale(0.996264)" xlink:href="#CMSS17-116"/>
     <use transform="translate(1001.86497 14.943915)scale(0.996264)" xlink:href="#CMSS17-116"/>
     <use transform="translate(1035.696537 14.943915)scale(0.996264)" xlink:href="#CMSS17-105"/>
     <use transform="translate(1057.87726 14.943915)scale(0.996264)" xlink:href="#CMSS17-110"/>
     <use transform="translate(1106.082203 14.943915)scale(0.996264)" xlink:href="#CMSS17-103"/>
     <use transform="translate(1184.154939 14.943915)scale(0.996264)" xlink:href="#CMSS17-115"/>
     <use transform="translate(1220.068481 14.943915)scale(0.996264)" xlink:href="#CMSS17-112"/>
     <use transform="translate(1270.875863 14.943915)scale(0.996264)" xlink:href="#CMSS17-101"/>
     <use transform="translate(1312.514685 14.943915)scale(0.996264)" xlink:href="#CMSS17-101"/>
     <use transform="translate(1354.153507 14.943915)scale(0.996264)" xlink:href="#CMSS17-100"/>
     <use transform="translate(1433.587563 14.943915)scale(0.996264)" xlink:href="#CMMI12-86"/>
    </g>
   </g>
   <g id="legend_1">
    <g id="patch_7">
     <path d="M 564.316083 157.150293 
L 704.058172 157.150293 
Q 706.458172 157.150293 706.458172 154.750293 
L 706.458172 48.219285 
Q 706.458172 45.819285 704.058172 45.819285 
L 564.316083 45.819285 
Q 561.916083 45.819285 561.916083 48.219285 
L 561.916083 154.750293 
Q 561.916083 157.150293 564.316083 157.150293 
z
" style="fill:#4c4c4c;opacity:0.5;stroke:#4c4c4c;stroke-linejoin:miter;"/>
    </g>
    <g id="patch_8">
     <path d="M 562.316083 155.150293 
L 702.058172 155.150293 
Q 704.458172 155.150293 704.458172 152.750293 
L 704.458172 46.219285 
Q 704.458172 43.819285 702.058172 43.819285 
L 562.316083 43.819285 
Q 559.916083 43.819285 559.916083 46.219285 
L 559.916083 152.750293 
Q 559.916083 155.150293 562.316083 155.150293 
z
" style="fill:#ffffff;stroke:#cccccc;stroke-linejoin:miter;"/>
    </g>
    <g id="line2d_37">
     <path d="M 564.716083 54.049857 
L 588.716083 54.049857 
" style="fill:none;stroke:#1f77b4;stroke-linecap:square;stroke-width:2;"/>
    </g>
    <g id="line2d_38"/>
    <g id="text_19">
     <!-- $T_{int}\ (t_1=0.15\ mm)$ -->
     <defs>
      <path d="M 64.296875 32 
C 65.796875 32 67.296875 32 67.296875 33.6875 
C 67.296875 35.5 65.59375 35.5 63.90625 35.5 
L 8 35.5 
C 6.296875 35.5 4.59375 35.5 4.59375 33.6875 
C 4.59375 32 6.09375 32 7.59375 32 
z
M 63.90625 14.484375 
C 65.59375 14.484375 67.296875 14.484375 67.296875 16.296875 
C 67.296875 18 65.796875 18 64.296875 18 
L 7.59375 18 
C 6.09375 18 4.59375 18 4.59375 16.296875 
C 4.59375 14.484375 6.296875 14.484375 8 14.484375 
z
" id="CMR17-61"/>
      <path d="M 18.40625 4.796875 
C 18.40625 7.6875 16 9.6875 13.59375 9.6875 
C 10.703125 9.6875 8.703125 7.296875 8.703125 4.890625 
C 8.703125 2 11.09375 0 13.5 0 
C 16.40625 0 18.40625 2.390625 18.40625 4.796875 
z
" id="CMMI12-58"/>
     </defs>
     <g transform="translate(598.316083 58.249857)scale(0.12 -0.12)">
      <use transform="translate(0 14.943915)scale(0.996264)" xlink:href="#CMMI12-84"/>
      <use transform="translate(57.175044 0)scale(0.697382)" xlink:href="#CMMI12-105"/>
      <use transform="translate(80.469951 0)scale(0.697382)" xlink:href="#CMMI12-110"/>
      <use transform="translate(121.230794 0)scale(0.697382)" xlink:href="#CMMI12-116"/>
      <use transform="translate(177.616348 14.943915)scale(0.996264)" xlink:href="#CMR17-40"/>
      <use transform="translate(212.897116 14.943915)scale(0.996264)" xlink:href="#CMMI12-116"/>
      <use transform="translate(248.123446 0)scale(0.697382)" xlink:href="#CMR17-49"/>
      <use transform="translate(308.278769 14.943915)scale(0.996264)" xlink:href="#CMR17-61"/>
      <use transform="translate(407.667566 14.943915)scale(0.996264)" xlink:href="#CMR17-48"/>
      <use transform="translate(453.358043 14.943915)scale(0.996264)" xlink:href="#CMMI12-58"/>
      <use transform="translate(480.45522 14.943915)scale(0.996264)" xlink:href="#CMR17-49"/>
      <use transform="translate(526.145698 14.943915)scale(0.996264)" xlink:href="#CMR17-53"/>
      <use transform="translate(603.065287 14.943915)scale(0.996264)" xlink:href="#CMMI12-109"/>
      <use transform="translate(688.392512 14.943915)scale(0.996264)" xlink:href="#CMMI12-109"/>
      <use transform="translate(773.719736 14.943915)scale(0.996264)" xlink:href="#CMR17-41"/>
     </g>
    </g>
    <g id="line2d_39">
     <path d="M 564.716083 72.005025 
L 588.716083 72.005025 
" style="fill:none;stroke:#ff7f0e;stroke-linecap:square;stroke-width:2;"/>
    </g>
    <g id="line2d_40"/>
    <g id="text_20">
     <!-- $T_{int}\ (t_1=0.2\ mm)$ -->
     <g transform="translate(598.316083 76.205025)scale(0.12 -0.12)">
      <use transform="translate(0 14.943915)scale(0.996264)" xlink:href="#CMMI12-84"/>
      <use transform="translate(57.175044 0)scale(0.697382)" xlink:href="#CMMI12-105"/>
      <use transform="translate(80.469951 0)scale(0.697382)" xlink:href="#CMMI12-110"/>
      <use transform="translate(121.230794 0)scale(0.697382)" xlink:href="#CMMI12-116"/>
      <use transform="translate(177.616348 14.943915)scale(0.996264)" xlink:href="#CMR17-40"/>
      <use transform="translate(212.897116 14.943915)scale(0.996264)" xlink:href="#CMMI12-116"/>
      <use transform="translate(248.123446 0)scale(0.697382)" xlink:href="#CMR17-49"/>
      <use transform="translate(308.278769 14.943915)scale(0.996264)" xlink:href="#CMR17-61"/>
      <use transform="translate(407.667566 14.943915)scale(0.996264)" xlink:href="#CMR17-48"/>
      <use transform="translate(453.358043 14.943915)scale(0.996264)" xlink:href="#CMMI12-58"/>
      <use transform="translate(480.45522 14.943915)scale(0.996264)" xlink:href="#CMR17-50"/>
      <use transform="translate(557.37481 14.943915)scale(0.996264)" xlink:href="#CMMI12-109"/>
      <use transform="translate(642.702035 14.943915)scale(0.996264)" xlink:href="#CMMI12-109"/>
      <use transform="translate(728.029259 14.943915)scale(0.996264)" xlink:href="#CMR17-41"/>
     </g>
    </g>
    <g id="line2d_41">
     <path d="M 564.716083 89.960193 
L 588.716083 89.960193 
" style="fill:none;stroke:#2ca02c;stroke-linecap:square;stroke-width:2;"/>
    </g>
    <g id="line2d_42"/>
    <g id="text_21">
     <!-- $T_{int}\ (t_1=0.25\ mm)$ -->
     <g transform="translate(598.316083 94.160193)scale(0.12 -0.12)">
      <use transform="translate(0 14.943915)scale(0.996264)" xlink:href="#CMMI12-84"/>
      <use transform="translate(57.175044 0)scale(0.697382)" xlink:href="#CMMI12-105"/>
      <use transform="translate(80.469951 0)scale(0.697382)" xlink:href="#CMMI12-110"/>
      <use transform="translate(121.230794 0)scale(0.697382)" xlink:href="#CMMI12-116"/>
      <use transform="translate(177.616348 14.943915)scale(0.996264)" xlink:href="#CMR17-40"/>
      <use transform="translate(212.897116 14.943915)scale(0.996264)" xlink:href="#CMMI12-116"/>
      <use transform="translate(248.123446 0)scale(0.697382)" xlink:href="#CMR17-49"/>
      <use transform="translate(308.278769 14.943915)scale(0.996264)" xlink:href="#CMR17-61"/>
      <use transform="translate(407.667566 14.943915)scale(0.996264)" xlink:href="#CMR17-48"/>
      <use transform="translate(453.358043 14.943915)scale(0.996264)" xlink:href="#CMMI12-58"/>
      <use transform="translate(480.45522 14.943915)scale(0.996264)" xlink:href="#CMR17-50"/>
      <use transform="translate(526.145698 14.943915)scale(0.996264)" xlink:href="#CMR17-53"/>
      <use transform="translate(603.065287 14.943915)scale(0.996264)" xlink:href="#CMMI12-109"/>
      <use transform="translate(688.392512 14.943915)scale(0.996264)" xlink:href="#CMMI12-109"/>
      <use transform="translate(773.719736 14.943915)scale(0.996264)" xlink:href="#CMR17-41"/>
     </g>
    </g>
    <g id="line2d_43">
     <path d="M 564.716083 107.915361 
L 588.716083 107.915361 
" style="fill:none;stroke:#d62728;stroke-linecap:square;stroke-width:2;"/>
    </g>
    <g id="line2d_44"/>
    <g id="text_22">
     <!-- $T_{int}\ (t_1=0.3\ mm)$ -->
     <g transform="translate(598.316083 112.115361)scale(0.12 -0.12)">
      <use transform="translate(0 14.943915)scale(0.996264)" xlink:href="#CMMI12-84"/>
      <use transform="translate(57.175044 0)scale(0.697382)" xlink:href="#CMMI12-105"/>
      <use transform="translate(80.469951 0)scale(0.697382)" xlink:href="#CMMI12-110"/>
      <use transform="translate(121.230794 0)scale(0.697382)" xlink:href="#CMMI12-116"/>
      <use transform="translate(177.616348 14.943915)scale(0.996264)" xlink:href="#CMR17-40"/>
      <use transform="translate(212.897116 14.943915)scale(0.996264)" xlink:href="#CMMI12-116"/>
      <use transform="translate(248.123446 0)scale(0.697382)" xlink:href="#CMR17-49"/>
      <use transform="translate(308.278769 14.943915)scale(0.996264)" xlink:href="#CMR17-61"/>
      <use transform="translate(407.667566 14.943915)scale(0.996264)" xlink:href="#CMR17-48"/>
      <use transform="translate(453.358043 14.943915)scale(0.996264)" xlink:href="#CMMI12-58"/>
      <use transform="translate(480.45522 14.943915)scale(0.996264)" xlink:href="#CMR17-51"/>
      <use transform="translate(557.37481 14.943915)scale(0.996264)" xlink:href="#CMMI12-109"/>
      <use transform="translate(642.702035 14.943915)scale(0.996264)" xlink:href="#CMMI12-109"/>
      <use transform="translate(728.029259 14.943915)scale(0.996264)" xlink:href="#CMR17-41"/>
     </g>
    </g>
    <g id="line2d_45">
     <path d="M 564.716083 125.87053 
L 588.716083 125.87053 
" style="fill:none;stroke:#9467bd;stroke-linecap:square;stroke-width:2;"/>
    </g>
    <g id="line2d_46"/>
    <g id="text_23">
     <!-- $T_{int}\ (t_1=0.4\ mm)$ -->
     <g transform="translate(598.316083 130.07053)scale(0.12 -0.12)">
      <use transform="translate(0 14.943915)scale(0.996264)" xlink:href="#CMMI12-84"/>
      <use transform="translate(57.175044 0)scale(0.697382)" xlink:href="#CMMI12-105"/>
      <use transform="translate(80.469951 0)scale(0.697382)" xlink:href="#CMMI12-110"/>
      <use transform="translate(121.230794 0)scale(0.697382)" xlink:href="#CMMI12-116"/>
      <use transform="translate(177.616348 14.943915)scale(0.996264)" xlink:href="#CMR17-40"/>
      <use transform="translate(212.897116 14.943915)scale(0.996264)" xlink:href="#CMMI12-116"/>
      <use transform="translate(248.123446 0)scale(0.697382)" xlink:href="#CMR17-49"/>
      <use transform="translate(308.278769 14.943915)scale(0.996264)" xlink:href="#CMR17-61"/>
      <use transform="translate(407.667566 14.943915)scale(0.996264)" xlink:href="#CMR17-48"/>
      <use transform="translate(453.358043 14.943915)scale(0.996264)" xlink:href="#CMMI12-58"/>
      <use transform="translate(480.45522 14.943915)scale(0.996264)" xlink:href="#CMR17-52"/>
      <use transform="translate(557.37481 14.943915)scale(0.996264)" xlink:href="#CMMI12-109"/>
      <use transform="translate(642.702035 14.943915)scale(0.996264)" xlink:href="#CMMI12-109"/>
      <use transform="translate(728.029259 14.943915)scale(0.996264)" xlink:href="#CMR17-41"/>
     </g>
    </g>
    <g id="line2d_47">
     <path d="M 564.716083 143.825698 
L 588.716083 143.825698 
" style="fill:none;stroke:#8c564b;stroke-linecap:square;stroke-width:2;"/>
    </g>
    <g id="line2d_48"/>
    <g id="text_24">
     <!-- $T_{int}\ (t_1=0.5\ mm)$ -->
     <g transform="translate(598.316083 148.025698)scale(0.12 -0.12)">
      <use transform="translate(0 14.943915)scale(0.996264)" xlink:href="#CMMI12-84"/>
      <use transform="translate(57.175044 0)scale(0.697382)" xlink:href="#CMMI12-105"/>
      <use transform="translate(80.469951 0)scale(0.697382)" xlink:href="#CMMI12-110"/>
      <use transform="translate(121.230794 0)scale(0.697382)" xlink:href="#CMMI12-116"/>
      <use transform="translate(177.616348 14.943915)scale(0.996264)" xlink:href="#CMR17-40"/>
      <use transform="translate(212.897116 14.943915)scale(0.996264)" xlink:href="#CMMI12-116"/>
      <use transform="translate(248.123446 0)scale(0.697382)" xlink:href="#CMR17-49"/>
      <use transform="translate(308.278769 14.943915)scale(0.996264)" xlink:href="#CMR17-61"/>
      <use transform="translate(407.667566 14.943915)scale(0.996264)" xlink:href="#CMR17-48"/>
      <use transform="translate(453.358043 14.943915)scale(0.996264)" xlink:href="#CMMI12-58"/>
      <use transform="translate(480.45522 14.943915)scale(0.996264)" xlink:href="#CMR17-53"/>
      <use transform="translate(557.37481 14.943915)scale(0.996264)" xlink:href="#CMMI12-109"/>
      <use transform="translate(642.702035 14.943915)scale(0.996264)" xlink:href="#CMMI12-109"/>
      <use transform="translate(728.029259 14.943915)scale(0.996264)" xlink:href="#CMR17-41"/>
     </g>
    </g>
   </g>
  </g>
 </g>
 <defs>
  <clipPath id="p18f27452b7">
   <rect height="449.5572" width="652.302" x="58.156172" y="37.819285"/>
  </clipPath>
 </defs>
</svg>
